<svg width="24" height="24" viewBox="0 0 24 24" fill="none" xmlns="http://www.w3.org/2000/svg">
<path d="M6.88428 6.37305L17.8931 17.3818" stroke="currentColor" stroke-width="1.6" stroke-linecap="round"/>
<path d="M10.7472 10.3574C10.3119 10.7927 10.0674 11.3831 10.0674 11.9987C10.0674 12.6143 10.3119 13.2047 10.7472 13.64C11.1825 14.0753 11.7729 14.3199 12.3885 14.3199C13.0041 14.3199 13.5945 14.0753 14.0298 13.64" stroke="currentColor" stroke-width="1.2" stroke-linecap="round" stroke-linejoin="round"/>
<path d="M8.49145 7.98772C7.06417 8.81059 5.76131 10.1351 4.58398 11.9996C6.7593 15.4446 9.36318 17.0461 12.3886 17.0461C13.843 17.0461 15.1999 16.676 16.4587 15.909M18.1059 14.6225C18.8406 13.9118 19.5365 13.0397 20.1933 11.9996C18.0179 8.55458 15.4141 6.95312 12.3886 6.95312C11.8342 6.95312 11.294 7.0069 10.768 7.11593" stroke="currentColor" stroke-width="1.6" stroke-linecap="round" stroke-linejoin="round"/>
</svg>
