<svg width="109" height="61" viewBox="0 0 109 61" fill="none" xmlns="http://www.w3.org/2000/svg">
<path d="M54.7901 13.414V1M54.7901 1L50.8994 4.89068M54.7901 1L58.6808 4.89068" stroke="currentColor"/>
<path d="M45.3501 12.0195V15.0018C45.3501 16.1063 46.2455 17.0018 47.3501 17.0018H62.23C63.3346 17.0018 64.23 16.1063 64.23 15.0018V12.0195" stroke="currentColor"/>
<path d="M8.14846 32.9H9.25346V39.01C9.25346 39.634 9.42246 40.1367 9.76046 40.518C10.0985 40.8993 10.5925 41.09 11.2425 41.09C11.8925 41.09 12.3865 40.8993 12.7245 40.518C13.0625 40.1367 13.2315 39.634 13.2315 39.01V32.9H14.3365V39.01C14.3365 39.4607 14.2628 39.8767 14.1155 40.258C13.9768 40.6393 13.7688 40.9687 13.4915 41.246C13.2228 41.5233 12.8978 41.74 12.5165 41.896C12.1351 42.052 11.7105 42.13 11.2425 42.13C10.7745 42.13 10.3498 42.052 9.96846 41.896C9.58713 41.74 9.2578 41.5233 8.98046 41.246C8.7118 40.9687 8.5038 40.6393 8.35646 40.258C8.2178 39.8767 8.14846 39.4607 8.14846 39.01V32.9ZM17.3512 32.9H18.4562V42H17.3512V32.9ZM17.9622 33.94V32.9H19.8212C20.4105 32.9 20.9348 33.0127 21.3942 33.238C21.8622 33.4547 22.2305 33.7667 22.4992 34.174C22.7765 34.5813 22.9152 35.0667 22.9152 35.63C22.9152 36.1847 22.7765 36.67 22.4992 37.086C22.2305 37.4933 21.8622 37.8097 21.3942 38.035C20.9348 38.2517 20.4105 38.36 19.8212 38.36H17.9622V37.32H19.8212C20.4105 37.32 20.8872 37.177 21.2512 36.891C21.6238 36.605 21.8102 36.1847 21.8102 35.63C21.8102 35.0667 21.6238 34.6463 21.2512 34.369C20.8872 34.083 20.4105 33.94 19.8212 33.94H17.9622ZM25.4732 32.9H26.5782V40.96H30.1532V42H25.4732V32.9ZM32.5822 37.45C32.5822 38.1347 32.7295 38.7457 33.0242 39.283C33.3275 39.8203 33.7392 40.245 34.2592 40.557C34.7792 40.869 35.3685 41.025 36.0272 41.025C36.6945 41.025 37.2839 40.869 37.7952 40.557C38.3152 40.245 38.7225 39.8203 39.0172 39.283C39.3205 38.7457 39.4722 38.1347 39.4722 37.45C39.4722 36.7653 39.3205 36.1543 39.0172 35.617C38.7225 35.0797 38.3152 34.655 37.7952 34.343C37.2839 34.031 36.6945 33.875 36.0272 33.875C35.3685 33.875 34.7792 34.031 34.2592 34.343C33.7392 34.655 33.3275 35.0797 33.0242 35.617C32.7295 36.1543 32.5822 36.7653 32.5822 37.45ZM31.4122 37.45C31.4122 36.7827 31.5249 36.1673 31.7502 35.604C31.9842 35.032 32.3092 34.538 32.7252 34.122C33.1412 33.6973 33.6309 33.368 34.1942 33.134C34.7575 32.8913 35.3685 32.77 36.0272 32.77C36.6945 32.77 37.3055 32.8913 37.8602 33.134C38.4235 33.368 38.9132 33.6973 39.3292 34.122C39.7452 34.538 40.0659 35.032 40.2912 35.604C40.5252 36.1673 40.6422 36.7827 40.6422 37.45C40.6422 38.1087 40.5252 38.724 40.2912 39.296C40.0659 39.868 39.7452 40.3663 39.3292 40.791C38.9132 41.207 38.4235 41.5363 37.8602 41.779C37.3055 42.013 36.6945 42.13 36.0272 42.13C35.3685 42.13 34.7575 42.013 34.1942 41.779C33.6309 41.5363 33.1412 41.207 32.7252 40.791C32.3092 40.3663 31.9842 39.868 31.7502 39.296C31.5249 38.724 31.4122 38.1087 31.4122 37.45ZM43.6802 39.27L44.0702 38.23H48.1002L48.4902 39.27H43.6802ZM46.0592 34.954L44.5252 38.568L44.4212 38.802L43.0692 42H41.8342L46.0592 32.445L50.2842 42H49.0492L47.7232 38.88L47.6192 38.62L46.0592 34.954ZM52.3912 32.9H53.4962V42H52.3912V32.9ZM55.1212 42H53.0022V40.895H55.1212C55.6325 40.895 56.1005 40.817 56.5252 40.661C56.9499 40.4963 57.3139 40.2667 57.6172 39.972C57.9205 39.6687 58.1545 39.3047 58.3192 38.88C58.4839 38.4553 58.5662 37.9787 58.5662 37.45C58.5662 36.9213 58.4839 36.4447 58.3192 36.02C58.1545 35.5953 57.9205 35.2357 57.6172 34.941C57.3139 34.6377 56.9499 34.408 56.5252 34.252C56.1005 34.0873 55.6325 34.005 55.1212 34.005H53.0022V32.9H55.1212C56.0052 32.9 56.7895 33.0907 57.4742 33.472C58.1589 33.8533 58.6962 34.3863 59.0862 35.071C59.4762 35.747 59.6712 36.54 59.6712 37.45C59.6712 38.36 59.4762 39.1573 59.0862 39.842C58.6962 40.518 58.1589 41.0467 57.4742 41.428C56.7895 41.8093 56.0052 42 55.1212 42ZM72.0776 32.9H73.3126L70.2836 38.074V42H69.1786V38.087L66.1496 32.9H67.3846L69.7246 37.112L72.0776 32.9ZM75.4142 37.45C75.4142 38.1347 75.5616 38.7457 75.8562 39.283C76.1596 39.8203 76.5712 40.245 77.0912 40.557C77.6112 40.869 78.2006 41.025 78.8592 41.025C79.5266 41.025 80.1159 40.869 80.6272 40.557C81.1472 40.245 81.5546 39.8203 81.8492 39.283C82.1526 38.7457 82.3042 38.1347 82.3042 37.45C82.3042 36.7653 82.1526 36.1543 81.8492 35.617C81.5546 35.0797 81.1472 34.655 80.6272 34.343C80.1159 34.031 79.5266 33.875 78.8592 33.875C78.2006 33.875 77.6112 34.031 77.0912 34.343C76.5712 34.655 76.1596 35.0797 75.8562 35.617C75.5616 36.1543 75.4142 36.7653 75.4142 37.45ZM74.2442 37.45C74.2442 36.7827 74.3569 36.1673 74.5822 35.604C74.8162 35.032 75.1412 34.538 75.5572 34.122C75.9732 33.6973 76.4629 33.368 77.0262 33.134C77.5896 32.8913 78.2006 32.77 78.8592 32.77C79.5266 32.77 80.1376 32.8913 80.6922 33.134C81.2556 33.368 81.7452 33.6973 82.1612 34.122C82.5772 34.538 82.8979 35.032 83.1232 35.604C83.3572 36.1673 83.4742 36.7827 83.4742 37.45C83.4742 38.1087 83.3572 38.724 83.1232 39.296C82.8979 39.868 82.5772 40.3663 82.1612 40.791C81.7452 41.207 81.2556 41.5363 80.6922 41.779C80.1376 42.013 79.5266 42.13 78.8592 42.13C78.2006 42.13 77.5896 42.013 77.0262 41.779C76.4629 41.5363 75.9732 41.207 75.5572 40.791C75.1412 40.3663 74.8162 39.868 74.5822 39.296C74.3569 38.724 74.2442 38.1087 74.2442 37.45ZM85.9698 32.9H87.0748V39.01C87.0748 39.634 87.2438 40.1367 87.5818 40.518C87.9198 40.8993 88.4138 41.09 89.0638 41.09C89.7138 41.09 90.2078 40.8993 90.5458 40.518C90.8838 40.1367 91.0528 39.634 91.0528 39.01V32.9H92.1578V39.01C92.1578 39.4607 92.0841 39.8767 91.9368 40.258C91.7981 40.6393 91.5901 40.9687 91.3128 41.246C91.0441 41.5233 90.7191 41.74 90.3378 41.896C89.9564 42.052 89.5318 42.13 89.0638 42.13C88.5958 42.13 88.1711 42.052 87.7898 41.896C87.4084 41.74 87.0791 41.5233 86.8018 41.246C86.5331 40.9687 86.3251 40.6393 86.1778 40.258C86.0391 39.8767 85.9698 39.4607 85.9698 39.01V32.9ZM96.7974 37.515H98.0324L101.282 42H99.9174L96.7974 37.515ZM95.1724 32.9H96.2774V42H95.1724V32.9ZM95.7834 33.875V32.9H97.6424C98.2318 32.9 98.7561 33.0127 99.2154 33.238C99.6834 33.4547 100.052 33.7667 100.32 34.174C100.598 34.5813 100.736 35.0667 100.736 35.63C100.736 36.1847 100.598 36.67 100.32 37.086C100.052 37.4933 99.6834 37.8097 99.2154 38.035C98.7561 38.2517 98.2318 38.36 97.6424 38.36H95.7834V37.385H97.6424C98.0324 37.385 98.3748 37.3157 98.6694 37.177C98.9728 37.0383 99.2068 36.839 99.3714 36.579C99.5448 36.319 99.6314 36.0027 99.6314 35.63C99.6314 35.2573 99.5448 34.941 99.3714 34.681C99.2068 34.421 98.9728 34.2217 98.6694 34.083C98.3748 33.9443 98.0324 33.875 97.6424 33.875H95.7834ZM33.7667 48.9H34.8717V58H33.7667V48.9ZM39.2142 51.851L38.5382 58H37.4332L38.5382 48.445L42.1782 55.036L45.8182 48.445L46.9232 58H45.8182L45.1422 51.851L42.1782 57.155L39.2142 51.851ZM50.3486 55.27L50.7386 54.23H54.7686L55.1586 55.27H50.3486ZM52.7276 50.954L51.1936 54.568L51.0896 54.802L49.7376 58H48.5026L52.7276 48.445L56.9526 58H55.7176L54.3916 54.88L54.2876 54.62L52.7276 50.954ZM62.8911 54.425V53.385H67.1161C67.1161 54.0177 67.0208 54.62 66.8301 55.192C66.6394 55.7553 66.3578 56.258 65.9851 56.7C65.6124 57.142 65.1531 57.493 64.6071 57.753C64.0698 58.0043 63.4544 58.13 62.7611 58.13C62.1024 58.13 61.4914 58.0173 60.9281 57.792C60.3648 57.558 59.8751 57.233 59.4591 56.817C59.0431 56.3923 58.7181 55.894 58.4841 55.322C58.2588 54.75 58.1461 54.126 58.1461 53.45C58.1461 52.774 58.2588 52.15 58.4841 51.578C58.7181 51.006 59.0431 50.512 59.4591 50.096C59.8751 49.6713 60.3648 49.3463 60.9281 49.121C61.4914 48.887 62.1024 48.77 62.7611 48.77C63.3244 48.77 63.8401 48.8437 64.3081 48.991C64.7848 49.1383 65.2094 49.355 65.5821 49.641C65.9634 49.927 66.2841 50.2823 66.5441 50.707L65.7641 51.422C65.4781 50.9367 65.0794 50.5597 64.5681 50.291C64.0568 50.0137 63.4544 49.875 62.7611 49.875C62.1198 49.875 61.5391 50.0267 61.0191 50.33C60.4991 50.6333 60.0831 51.0537 59.7711 51.591C59.4678 52.1197 59.3161 52.7393 59.3161 53.45C59.3161 54.152 59.4678 54.7717 59.7711 55.309C60.0831 55.8463 60.4991 56.2667 61.0191 56.57C61.5391 56.8733 62.1198 57.025 62.7611 57.025C63.2118 57.025 63.6148 56.96 63.9701 56.83C64.3341 56.6913 64.6461 56.5007 64.9061 56.258C65.1661 56.0153 65.3784 55.738 65.5431 55.426C65.7164 55.114 65.8421 54.7803 65.9201 54.425H62.8911ZM70.3572 58V56.96H74.9462V58H70.3572ZM70.3572 49.94V48.9H74.9462V49.94H70.3572ZM70.3572 53.58V52.54H74.6862V53.58H70.3572ZM69.7462 48.9H70.8512V58H69.7462V48.9Z" fill="currentColor"/>
</svg>
