<?xml version="1.0" standalone="no"?>
<!DOCTYPE svg PUBLIC "-//W3C//DTD SVG 20010904//EN"
 "http://www.w3.org/TR/2001/REC-SVG-20010904/DTD/svg10.dtd">
<svg version="1.0" xmlns="http://www.w3.org/2000/svg"
 width="100.000000pt" height="100.000000pt" viewBox="0 0 100.000000 100.000000"
 preserveAspectRatio="xMidYMid meet">
<metadata>
Created by potrace 1.14, written by Peter Selinger 2001-2017
</metadata>
<g transform="translate(0.000000,100.000000) scale(0.100000,-0.100000)"
fill="#000000" stroke="none">
<path d="M636 992 c-4 -7 -5 -21 -1 -31 4 -13 0 -23 -12 -30 -16 -9 -15 -11
10 -20 55 -21 31 -43 -83 -76 -152 -44 -144 -39 -125 -75 17 -32 24 -34 128
-30 47 2 49 1 42 -22 -21 -66 -35 -88 -57 -89 -13 0 -32 -2 -43 -4 -11 -2 -42
-7 -70 -11 -50 -6 -92 -23 -117 -47 -7 -7 -41 -34 -76 -61 -35 -27 -67 -58
-72 -70 -9 -24 -3 -37 9 -18 5 8 16 -15 30 -63 l23 -76 -37 -56 -37 -55 18
-64 c19 -73 34 -97 50 -86 9 5 8 24 -4 71 -15 62 -15 65 3 75 11 6 37 28 59
48 65 63 77 45 21 -32 l-34 -47 11 -61 c9 -50 15 -62 30 -62 17 0 18 5 13 43
-11 69 -10 74 16 82 23 8 69 50 93 87 12 19 28 27 64 32 26 3 59 9 73 12 23 5
27 1 39 -38 42 -135 74 -218 85 -218 21 0 23 10 13 48 -6 20 -18 81 -28 134
-15 85 -16 100 -3 118 24 35 33 25 49 -55 1 -5 9 -39 17 -75 9 -36 18 -87 19
-114 3 -42 6 -50 26 -53 13 -1 21 0 19 4 -3 5 -8 87 -12 183 -3 96 -8 189 -10
205 -2 17 -6 55 -10 85 -3 30 -9 69 -12 85 -3 17 -6 39 -7 50 -1 11 -6 34 -9
50 -13 55 -18 80 -23 125 l-6 45 45 18 c95 38 171 157 91 143 -69 -13 -93 -28
-120 -74 l-27 -46 -19 44 c-10 25 -22 54 -26 64 -6 14 -11 16 -16 8z m-11
-185 c19 -15 15 -31 -13 -46 -14 -8 -17 -4 -18 25 -1 38 4 40 31 21z m-60 -27
c1 -34 1 -34 -26 -20 -15 9 -17 15 -9 30 16 30 35 24 35 -10z"/>
</g>
</svg>
