<svg width="24" height="24" viewBox="0 0 24 24" fill="none" xmlns="http://www.w3.org/2000/svg">
<path d="M9.44971 6.9002V14.5514C9.44971 14.8896 9.58406 15.2139 9.8232 15.4531C10.0623 15.6922 10.3867 15.8266 10.7249 15.8266H15.8257C16.1639 15.8266 16.4882 15.6922 16.7274 15.4531C16.9665 15.2139 17.1009 14.8896 17.1009 14.5514V8.96729C17.1009 8.79741 17.0669 8.62924 17.001 8.47267C16.9351 8.31609 16.8385 8.17427 16.717 8.05552L14.6034 5.98843C14.3652 5.75549 14.0452 5.62504 13.712 5.625H10.7249C10.3867 5.625 10.0623 5.75935 9.8232 5.9985C9.58406 6.23764 9.44971 6.56199 9.44971 6.9002Z" stroke="currentColor" stroke-width="1.2" stroke-linecap="round" stroke-linejoin="round"/>
<path d="M14.5501 15.8261V17.1013C14.5501 17.4395 14.4157 17.7638 14.1766 18.003C13.9375 18.2421 13.6131 18.3765 13.2749 18.3765H8.17412C7.83592 18.3765 7.51157 18.2421 7.27242 18.003C7.03328 17.7638 6.89893 17.4395 6.89893 17.1013V10.0877C6.89893 9.74949 7.03328 9.42514 7.27242 9.186C7.51157 8.94685 7.83592 8.8125 8.17412 8.8125H9.44932" stroke="currentColor" stroke-width="1.2" stroke-linecap="round" stroke-linejoin="round"/>
</svg>
