<svg width="24" height="24" viewBox="0 0 24 24" fill="none" xmlns="http://www.w3.org/2000/svg">
<path d="M12 11.0881V15.6476M12 20.207C10.9222 20.207 9.85503 19.9948 8.85931 19.5823C7.86358 19.1699 6.95885 18.5653 6.19675 17.8032C5.43466 17.0412 4.83013 16.1364 4.41769 15.1407C4.00525 14.145 3.79297 13.0778 3.79297 12C3.79297 10.9222 4.00525 9.85503 4.41769 8.85931C4.83013 7.86358 5.43466 6.95885 6.19675 6.19675C6.95885 5.43466 7.86358 4.83013 8.85931 4.41769C9.85503 4.00525 10.9222 3.79297 12 3.79297C14.1766 3.79297 16.2641 4.65764 17.8032 6.19675C19.3424 7.73587 20.207 9.82336 20.207 12C20.207 14.1766 19.3424 16.2641 17.8032 17.8032C16.2641 19.3424 14.1766 20.207 12 20.207ZM12.0456 8.35243V8.44362H11.9544V8.35243H12.0456Z" stroke="currentColor" stroke-width="1.3" stroke-linecap="round" stroke-linejoin="round"/>
</svg>
