<svg width="24" height="24" viewBox="0 0 24 24" fill="none" xmlns="http://www.w3.org/2000/svg">
<path d="M11.5828 8.10526L12 8.59091L12.4172 8.10526C12.9705 7.46117 13.8221 7.05 14.7 7.05C16.2454 7.05 17.45 8.24957 17.45 9.797C17.45 10.746 17.0265 11.653 16.1681 12.7023C15.3036 13.759 14.0565 14.8916 12.5007 16.3011L12.4999 16.3018L12 16.7565L11.5001 16.3018L11.4993 16.3011C9.94345 14.8916 8.69643 13.759 7.83194 12.7023C6.97348 11.653 6.55 10.746 6.55 9.797C6.55 8.24957 7.75463 7.05 9.3 7.05C10.1779 7.05 11.0295 7.46117 11.5828 8.10526Z" stroke="currentColor" stroke-width="1.3"/>
</svg>
