<svg width="24" height="24" viewBox="0 0 24 24" fill="none" xmlns="http://www.w3.org/2000/svg">
<path fill-rule="evenodd" clip-rule="evenodd" d="M8.1285 2.66572C9.12988 2.61962 9.44916 2.60938 12 2.60938C14.5508 2.60938 14.8701 2.62047 15.8706 2.66572C16.8712 2.71096 17.5541 2.87061 18.1517 3.10196C18.7775 3.33843 19.3452 3.70808 19.8147 4.18615C20.2928 4.65482 20.6616 5.22168 20.8972 5.84829C21.1294 6.44587 21.2882 7.12883 21.3343 8.12765C21.3804 9.13074 21.3906 9.45002 21.3906 12C21.3906 14.5508 21.3795 14.8701 21.3343 15.8715C21.289 16.8703 21.1294 17.5533 20.8972 18.1509C20.6616 18.7776 20.2922 19.3453 19.8147 19.8147C19.3452 20.2928 18.7775 20.6616 18.1517 20.8972C17.5541 21.1294 16.8712 21.2882 15.8724 21.3343C14.8701 21.3804 14.5508 21.3906 12 21.3906C9.44916 21.3906 9.12988 21.3795 8.1285 21.3343C7.12968 21.289 6.44673 21.1294 5.84914 20.8972C5.22246 20.6615 4.65467 20.2921 4.18529 19.8147C3.70755 19.3457 3.33784 18.7782 3.10196 18.1517C2.87061 17.5541 2.71182 16.8712 2.66572 15.8724C2.61962 14.8693 2.60938 14.55 2.60938 12C2.60938 9.44916 2.62047 9.12988 2.66572 8.12936C2.71096 7.12883 2.87061 6.44587 3.10196 5.84829C3.33819 5.22175 3.70818 4.65424 4.18615 4.18529C4.65486 3.70765 5.22208 3.33795 5.84829 3.10196C6.44587 2.87061 7.12883 2.71182 8.12765 2.66572H8.1285ZM15.7947 4.35603C14.8044 4.31079 14.5073 4.30139 12 4.30139C9.4927 4.30139 9.19562 4.31079 8.20533 4.35603C7.28932 4.39786 6.79247 4.55067 6.46124 4.67958C6.02329 4.85032 5.70999 5.05265 5.38132 5.38132C5.06976 5.68442 4.82998 6.05341 4.67958 6.46124C4.55067 6.79247 4.39786 7.28932 4.35603 8.20533C4.31079 9.19562 4.30139 9.4927 4.30139 12C4.30139 14.5073 4.31079 14.8044 4.35603 15.7947C4.39786 16.7107 4.55067 17.2075 4.67958 17.5388C4.82983 17.946 5.06972 18.3156 5.38132 18.6187C5.68438 18.9303 6.05403 19.1702 6.46124 19.3204C6.79247 19.4493 7.28932 19.6021 8.20533 19.644C9.19562 19.6892 9.49185 19.6986 12 19.6986C14.5082 19.6986 14.8044 19.6892 15.7947 19.644C16.7107 19.6021 17.2075 19.4493 17.5388 19.3204C17.9767 19.1497 18.29 18.9474 18.6187 18.6187C18.9303 18.3156 19.1702 17.946 19.3204 17.5388C19.4493 17.2075 19.6021 16.7107 19.644 15.7947C19.6892 14.8044 19.6986 14.5073 19.6986 12C19.6986 9.4927 19.6892 9.19562 19.644 8.20533C19.6021 7.28932 19.4493 6.79247 19.3204 6.46124C19.1497 6.02329 18.9474 5.70999 18.6187 5.38132C18.3156 5.06978 17.9466 4.83001 17.5388 4.67958C17.2075 4.55067 16.7107 4.39786 15.7947 4.35603V4.35603ZM10.8006 14.8949C11.4704 15.1737 12.2163 15.2114 12.9108 15.0013C13.6054 14.7913 14.2054 14.3467 14.6086 13.7434C15.0117 13.1402 15.1929 12.4156 15.1211 11.6936C15.0494 10.9716 14.7293 10.2969 14.2153 9.78467C13.8877 9.45725 13.4916 9.20656 13.0554 9.05062C12.6193 8.89468 12.154 8.83737 11.6931 8.88284C11.2322 8.9283 10.787 9.0754 10.3898 9.31354C9.9925 9.55168 9.65298 9.87494 9.39564 10.26C9.1383 10.6452 8.96955 11.0825 8.90153 11.5407C8.83352 11.9988 8.86793 12.4664 9.00229 12.9096C9.13665 13.3529 9.36762 13.7608 9.67857 14.1041C9.98952 14.4474 10.3727 14.7175 10.8006 14.8949ZM8.58693 8.58693C9.03514 8.13872 9.56725 7.78319 10.1529 7.54062C10.7385 7.29805 11.3661 7.1732 12 7.1732C12.6339 7.1732 13.2615 7.29805 13.8471 7.54062C14.4328 7.78318 14.9649 8.13872 15.4131 8.58693C15.8613 9.03514 16.2168 9.56725 16.4594 10.1529C16.702 10.7385 16.8268 11.3661 16.8268 12C16.8268 12.6339 16.702 13.2615 16.4594 13.8471C16.2168 14.4328 15.8613 14.9649 15.4131 15.4131C14.5079 16.3183 13.2801 16.8268 12 16.8268C10.7199 16.8268 9.49214 16.3183 8.58693 15.4131C7.68173 14.5079 7.1732 13.2801 7.1732 12C7.1732 10.7199 7.68173 9.49214 8.58693 8.58693V8.58693ZM17.8973 7.89203C18.0084 7.78725 18.0973 7.66126 18.1588 7.5215C18.2203 7.38175 18.2531 7.23107 18.2554 7.0784C18.2576 6.92573 18.2292 6.77416 18.1718 6.63267C18.1144 6.49118 18.0292 6.36265 17.9212 6.25468C17.8132 6.14671 17.6847 6.0615 17.5432 6.0041C17.4017 5.9467 17.2501 5.91827 17.0975 5.92049C16.9448 5.92272 16.7941 5.95556 16.6544 6.01706C16.5146 6.07856 16.3886 6.16748 16.2838 6.27855C16.0801 6.49456 15.9685 6.78148 15.9728 7.0784C15.9772 7.37532 16.097 7.65887 16.307 7.86884C16.517 8.07882 16.8005 8.1987 17.0975 8.20303C17.3944 8.20736 17.6813 8.0958 17.8973 7.89203V7.89203Z" fill="currentColor"/>
</svg>
