<svg width="24" height="24" viewBox="0 0 24 24" fill="none" xmlns="http://www.w3.org/2000/svg">
<path fill-rule="evenodd" clip-rule="evenodd" d="M10.359 10.3576C10.7943 9.92228 11.3847 9.67773 12.0003 9.67773C12.6159 9.67773 13.2063 9.92228 13.6416 10.3576C14.0769 10.7929 14.3215 11.3833 14.3215 11.9989C14.3215 12.6145 14.0769 13.2049 13.6416 13.6402C13.2063 14.0755 12.6159 14.32 12.0003 14.32C11.3847 14.32 10.7943 14.0755 10.359 13.6402C9.92375 13.2049 9.6792 12.6145 9.6792 11.9989C9.6792 11.3833 9.92375 10.7929 10.359 10.3576Z" stroke="currentColor" stroke-width="1.2" stroke-linecap="round" stroke-linejoin="round"/>
<path d="M4.47054 11.5725C4.30578 11.8334 4.30578 12.1658 4.47054 12.4267C6.48279 15.6135 8.995 17.2309 12.0002 17.2309C15.0053 17.2309 17.5175 15.6135 19.5298 12.4267C19.6945 12.1658 19.6945 11.8334 19.5298 11.5725C17.5175 8.38572 15.0053 6.76836 12.0002 6.76836C8.995 6.76836 6.48279 8.38572 4.47054 11.5725Z" stroke="currentColor" stroke-width="1.6" stroke-linecap="round" stroke-linejoin="round"/>
</svg>
