<svg width="24" height="24" viewBox="0 0 24 24" fill="none" xmlns="http://www.w3.org/2000/svg">
<path d="M11.5023 7.11834L12 7.71089L12.4977 7.11834C13.2526 6.21959 14.4098 5.65 15.6 5.65C17.6926 5.65 19.35 7.31651 19.35 9.49591C19.35 10.8276 18.7679 12.0883 17.6174 13.5265C16.4594 14.9742 14.7908 16.5238 12.7182 18.4442L12.7173 18.445L12 19.1123L11.2827 18.445L11.2818 18.4442C9.20922 16.5238 7.54062 14.9742 6.38258 13.5265C5.23208 12.0883 4.65 10.8276 4.65 9.49591C4.65 7.31651 6.30736 5.65 8.4 5.65C9.59023 5.65 10.7474 6.21959 11.5023 7.11834Z" stroke="currentColor" stroke-width="1.3"/>
</svg>
