<svg width="24" height="24" viewBox="0 0 24 24" fill="currentColor" xmlns="http://www.w3.org/2000/svg">
<path fill-rule="evenodd" clip-rule="evenodd" d="M10.4616 6.42408C10.2904 6.07498 10.1282 5.72122 9.96738 5.37061C9.95779 5.34972 9.9474 5.32825 9.93685 5.30647C9.85008 5.1273 9.75311 4.92706 10.0152 4.85217L10.7619 4.64401C11.2753 4.50084 11.7882 4.35781 12.3011 4.21525C12.6378 4.12168 12.9743 4.02721 13.3109 3.93272C14.1837 3.68767 15.0568 3.44255 15.9334 3.21298C16.0546 3.17995 16.0674 3.12712 16.0419 3.01484C15.9781 2.79688 15.9207 2.57232 15.8697 2.34777C15.8505 2.2553 15.7995 2.21567 15.7102 2.20246C15.5731 2.17935 15.4344 2.15458 15.2957 2.12981C15.157 2.10504 15.0183 2.08028 14.8812 2.05716C14.687 2.02472 14.6842 1.63813 14.8875 1.60804C15.1171 1.57502 15.3467 1.5354 15.6145 1.48917C15.522 1.28442 15.4312 1.08628 15.3403 0.888136C15.2494 0.689995 15.1586 0.491853 15.0661 0.287109C15.1791 0.234651 15.285 0.182194 15.3938 0.12823C15.4632 0.0938677 15.5338 0.0588949 15.6082 0.0229224C16.0227 1.00041 16.4309 1.9647 16.8454 2.962C16.8829 2.90506 16.9195 2.85103 16.955 2.79859L16.9554 2.798C17.1636 2.49073 17.3599 2.17571 17.5562 1.86068C17.7431 1.56071 17.9301 1.26072 18.1273 0.96739C18.2165 0.835297 18.3568 0.703204 18.4971 0.656971C19.3198 0.379575 20.1489 0.108783 21.0162 0.00971328C21.2522 -0.0167056 21.2777 -0.00349581 21.2841 0.234272C21.3028 0.771074 21.102 1.26945 20.793 1.6939C20.3466 2.31474 19.7663 2.77046 19.1158 3.12051C18.6527 3.36528 18.1787 3.57982 17.7021 3.79557L17.6445 3.82166C17.51 3.88252 17.3754 3.94358 17.2408 4.00554C17.1069 4.06498 17.0431 4.12442 17.075 4.29614C17.2342 5.06564 17.389 5.83971 17.5394 6.61075C17.5697 6.76621 17.5999 6.92155 17.6298 7.07671C17.6896 7.3861 17.7531 7.69549 17.8166 8.00508C17.9565 8.68683 18.0965 9.36956 18.1974 10.0554C18.4334 11.667 18.6311 13.2785 18.816 14.8966C18.8785 15.4412 18.9027 15.9945 18.9269 16.5459C18.9323 16.67 18.9377 16.7939 18.9436 16.9177C18.9997 17.939 19.0437 18.9666 19.0874 19.9882L19.0902 20.0549L19.1668 21.7226L19.2433 23.3902L19.2624 23.7865C19.2688 23.8724 19.2369 23.9186 19.1476 23.9186C18.9181 23.9252 18.6821 23.9384 18.4525 23.9516C18.3441 23.9582 18.3377 23.8856 18.3313 23.8063L18.3262 23.7437C18.2641 22.9849 18.2016 22.2202 18.1209 21.4617C18.093 21.2132 18.0309 20.9647 17.9688 20.7162L17.9622 20.6896L17.9423 20.6097L17.1196 17.3007C17.0709 17.1125 17.0239 16.9243 16.976 16.7326L16.9758 16.7319L16.9585 16.6625C16.9179 16.5001 16.8765 16.3348 16.8326 16.1647C16.7683 16.2112 16.7064 16.2582 16.6453 16.3046C16.5067 16.4099 16.3729 16.5115 16.2268 16.594C15.9398 16.7592 15.8442 16.9837 15.8952 17.3206C15.9162 17.4695 15.916 17.6204 15.9159 17.7712C15.9157 17.8945 15.9156 18.0177 15.9271 18.1395C15.9717 18.5292 16.0291 18.9189 16.1056 19.302C16.2268 19.9558 16.348 20.6031 16.501 21.2503C16.6436 21.856 16.8012 22.4578 16.9595 23.0617L16.9596 23.0624C17.0067 23.2419 17.0538 23.4216 17.1005 23.6016C17.1069 23.6346 17.1133 23.6676 17.126 23.6941C17.1898 23.846 17.126 23.879 16.9857 23.8856C16.7753 23.8988 16.5648 23.9252 16.3543 23.9516C16.2523 23.9648 16.2077 23.9318 16.1694 23.8261C15.876 22.9609 15.5827 22.1023 15.2829 21.2371C15.2159 21.0422 15.1477 20.8479 15.0796 20.6537C14.9145 20.183 14.7495 19.7128 14.6006 19.2359C14.476 18.8381 14.3725 18.4316 14.2696 18.027L14.2694 18.0263L14.269 18.0248L14.2688 18.0239C14.2455 17.9324 14.2223 17.841 14.1988 17.7499C14.1733 17.6574 14.1541 17.6178 14.0521 17.6508C13.4754 17.8279 12.8912 17.9703 12.3011 18.0835C12.0141 18.1386 11.7246 18.1741 11.4354 18.2096C11.1757 18.2414 10.9164 18.2732 10.6593 18.3191C10.5956 18.3257 10.519 18.3719 10.4872 18.4248C9.72187 19.7259 8.6696 20.6902 7.29845 21.2714C7.22201 21.303 7.19036 21.3389 7.1905 21.4094C7.19046 21.4273 7.19251 21.4475 7.19642 21.4704C7.32397 22.2432 7.44514 23.0159 7.55993 23.7887C7.5636 23.8191 7.56516 23.8495 7.56704 23.8863C7.56841 23.9131 7.57002 23.9433 7.57268 23.9793C7.47723 23.9815 7.38252 23.9845 7.28829 23.9875C7.10551 23.9934 6.92457 23.9991 6.74362 23.9991C6.71173 23.9991 6.66709 23.9265 6.66072 23.8802L6.61152 23.6432C6.44307 22.8316 6.27556 22.0245 6.11864 21.2119C6.11486 21.195 6.11307 21.1764 6.11303 21.1571C6.11308 21.0787 6.14163 20.9869 6.18241 20.9288C6.26897 20.8116 6.35566 20.6947 6.44246 20.578C6.626 20.3324 6.81045 20.088 6.99472 19.8439C7.31348 19.4217 7.63172 19.0001 7.94384 18.5738C7.97183 18.539 8.00112 18.498 8.03937 18.4445C8.05617 18.421 8.07471 18.3951 8.09563 18.3662L8.09501 18.3662L8.09563 18.3653C8.02009 18.3612 7.94765 18.3584 7.87734 18.3556C7.72209 18.3495 7.57723 18.3439 7.43238 18.3257C7.20279 18.2927 7.06887 18.3719 6.92857 18.5701C6.47577 19.2173 5.91456 19.7523 5.23856 20.1288C5.06198 20.225 4.87864 20.3037 4.68852 20.3854C4.61771 20.4158 4.54596 20.4466 4.47327 20.4788V20.4797C4.56442 20.8384 4.65621 21.1984 4.74823 21.5594L4.74924 21.5633L4.75037 21.5678L4.75086 21.5697L4.78988 21.7227L4.79035 21.7246C4.97411 22.4453 5.15873 23.1694 5.34059 23.8934C5.28358 23.8934 5.22741 23.8937 5.17194 23.8939L5.10705 23.8943C4.88235 23.8955 4.66825 23.8967 4.45414 23.8868C4.42863 23.8868 4.39036 23.8076 4.37761 23.7613C4.28451 23.4565 4.19267 23.1511 4.10082 22.8456C3.85484 22.0276 3.60875 21.2093 3.33809 20.3996C3.32412 20.3561 3.31695 20.3163 3.31689 20.278C3.31699 20.2117 3.3384 20.1502 3.38273 20.0834C3.9626 19.2651 4.54247 18.4402 5.12234 17.6153L5.12311 17.6142L5.12376 17.6133C5.15982 17.5647 5.17549 17.5225 5.17539 17.4771C5.17547 17.4419 5.16605 17.4048 5.14927 17.3614C4.74112 16.3245 4.37123 15.2743 4.17353 14.1714C4.17003 14.1514 4.16788 14.1299 4.16569 14.108C4.16065 14.0577 4.15539 14.0052 4.13302 13.9639L4.12889 13.9477C4.12889 13.9437 4.12654 13.9421 4.11897 13.937L4.11635 13.9353C4.11341 13.9334 4.10982 13.931 4.10552 13.9279C4.10278 13.9254 4.0999 13.9229 4.09687 13.9206C3.94386 14.1649 3.79084 14.4092 3.62508 14.6667C3.59695 14.6262 3.57348 14.5843 3.55432 14.5413C3.47786 14.3664 3.48077 14.1837 3.51666 14.0137C3.54095 13.8788 3.58205 13.7518 3.63811 13.6336C3.73985 13.4344 3.88215 13.2542 4.03233 13.1209C4.0554 13.1009 4.07909 13.0815 4.10338 13.0627C4.65075 12.6356 5.20252 12.2108 5.75482 11.7855C6.142 11.4874 6.52945 11.1891 6.91581 10.8897C6.96684 10.8503 7.01746 10.8104 7.06786 10.7702L7.17275 10.6874C7.6822 10.2849 8.19852 9.87692 8.82669 9.70671C8.92052 9.68129 9.01684 9.66117 9.11601 9.64716C9.94889 9.5306 10.7796 9.40675 11.6106 9.28285C12.1923 9.19613 12.7741 9.10938 13.357 9.02508C13.5355 8.99867 13.6312 8.93262 13.695 8.7543C13.8676 8.24205 14.0505 7.73688 14.2337 7.23102L14.2339 7.23039C14.301 7.04509 14.3681 6.85969 14.4347 6.67382C14.4594 6.57159 14.3985 6.56606 14.3221 6.55913C14.309 6.55794 14.2954 6.55671 14.2817 6.55494C13.6758 6.54833 13.07 6.54369 12.4641 6.53905C11.8583 6.5344 11.2524 6.52976 10.6466 6.52316C10.5828 6.52316 10.4872 6.47692 10.4616 6.42408ZM9.49866 11.6757V11.6889H9.92594C10.0662 11.6889 10.1236 11.6229 10.1364 11.4643C10.1425 11.3189 10.0492 11.3127 9.95724 11.3066L9.94507 11.3058C9.90168 11.3021 9.85806 11.2981 9.8143 11.2941C9.62652 11.277 9.43613 11.2596 9.24994 11.2596C8.91831 11.2596 8.58669 11.2662 8.26144 11.2992C8.20829 11.3042 8.16245 11.3699 8.11839 11.433C8.10431 11.4532 8.0904 11.4732 8.0765 11.4908C8.07012 11.504 8.10838 11.5766 8.13389 11.5832C8.24231 11.6229 8.35073 11.6625 8.46552 11.6691C8.729 11.679 8.98888 11.6777 9.24517 11.6765C9.33006 11.6761 9.41456 11.6757 9.49866 11.6757ZM7.21236 13.1017C7.29932 13.0657 7.38116 13.0318 7.45789 12.99C7.59655 12.9142 7.73414 12.835 7.87197 12.7556C8.07013 12.6415 8.26879 12.5272 8.4719 12.422C8.59944 12.356 8.6696 12.2833 8.61858 12.1512C8.56118 11.9993 8.4335 12.0324 8.32508 12.0853C7.87871 12.3296 7.43234 12.5739 6.99234 12.8315C6.93494 12.8645 6.89668 12.9768 6.88392 13.0561C6.87914 13.0759 6.93893 13.1068 6.99872 13.1378C7.01865 13.1481 7.03858 13.1584 7.05611 13.1683C7.10991 13.1441 7.162 13.1226 7.21236 13.1017ZM8.89272 13.4197C8.82942 13.4137 8.76864 13.4079 8.70786 13.4127C8.60581 13.421 8.50376 13.4288 8.40171 13.4367C8.0956 13.4602 7.7895 13.4837 7.4834 13.5184C7.39412 13.525 7.30483 13.5844 7.23468 13.6373C7.20917 13.6571 7.2283 13.7892 7.25381 13.8024C7.34947 13.8354 7.45789 13.8684 7.55993 13.8618C7.75762 13.8453 7.95373 13.8239 8.14983 13.8024C8.34594 13.7809 8.54204 13.7595 8.73975 13.7429C8.93107 13.7231 8.98209 13.6703 8.96296 13.4259C8.93913 13.4242 8.91576 13.4219 8.89272 13.4197ZM8.75888 12.7258C8.78769 12.7237 8.8145 12.7229 8.83976 12.7222C8.89277 12.7207 8.93889 12.7194 8.98209 12.706L10.0918 12.3295C10.2321 12.2833 10.3724 12.2305 10.5063 12.171C10.5328 12.1619 10.5471 12.1273 10.5618 12.0916C10.5684 12.0758 10.575 12.0597 10.5828 12.0455C10.5445 12.0257 10.4999 12.0059 10.4553 11.9927C10.4383 11.9883 10.4213 11.9956 10.4042 12.003C10.3957 12.0067 10.3872 12.0103 10.3787 12.0125C10.2634 12.0512 10.1475 12.0894 10.0316 12.1276C9.89012 12.1742 9.74936 12.2241 9.60859 12.2739C9.42091 12.3404 9.23321 12.4069 9.04366 12.4658C8.93033 12.5011 8.80519 12.54 8.75888 12.7258ZM8.9972 10.838C9.04211 10.8253 9.08225 10.8139 9.12239 10.7973L9.25184 10.7365C9.48762 10.626 9.71953 10.5173 9.95145 10.3944C9.98746 10.3737 10.0084 10.327 10.03 10.2787C10.0429 10.25 10.056 10.2209 10.0726 10.1962C10.0513 10.1922 10.0288 10.1858 10.0062 10.1793C9.95443 10.1644 9.90212 10.1494 9.86217 10.1632C9.67958 10.232 9.50659 10.3107 9.3307 10.3907L9.24994 10.4274C9.12877 10.4868 9.00122 10.5529 8.8928 10.6322C8.84816 10.6652 8.82903 10.7378 8.82265 10.7973C8.81291 10.8074 8.85155 10.829 8.88455 10.8475C8.89475 10.8532 8.90441 10.8586 8.91194 10.8633C8.94266 10.8535 8.97076 10.8455 8.9972 10.838ZM10.7308 13.9511C10.7661 13.984 10.8007 14.0161 10.8379 14.0203C10.9821 14.0257 11.128 14.0284 11.2731 14.0311C11.3505 14.0325 11.4276 14.0339 11.5042 14.0357C11.6175 14.0384 11.73 14.0411 11.8392 14.0269C11.8786 14.0224 11.915 13.9868 11.9504 13.952C11.9666 13.9362 11.9826 13.9205 11.9986 13.9081C11.9859 13.8968 11.9726 13.8828 11.9592 13.8686C11.9254 13.8329 11.8902 13.7958 11.8583 13.7958C11.5203 13.7826 11.1823 13.776 10.8443 13.7826C10.806 13.7826 10.7678 13.8178 10.7295 13.853C10.7104 13.8706 10.6912 13.8883 10.6721 13.9015C10.6923 13.9154 10.7116 13.9334 10.7308 13.9511ZM7.25381 12.1776C6.97321 12.1909 5.9592 12.5739 5.78064 12.7192C5.75896 12.7372 5.74318 12.7643 5.72328 12.7985C5.7139 12.8146 5.70361 12.8323 5.69135 12.8513C5.71571 12.8513 5.73635 12.8523 5.75398 12.8531C5.7825 12.8544 5.80313 12.8554 5.8189 12.8513C5.92341 12.8105 6.02756 12.7701 6.13144 12.7298L6.13227 12.7295C6.46548 12.6002 6.79587 12.472 7.12627 12.3362C7.15769 12.3222 7.17963 12.2886 7.20989 12.2423C7.22262 12.2228 7.23682 12.2011 7.25381 12.1776ZM8.86729 14.5751V14.5817C8.90396 14.5817 8.94063 14.5822 8.9773 14.5826C9.08731 14.5838 9.19732 14.585 9.30733 14.5751C9.33606 14.5709 9.36215 14.5448 9.38899 14.5179C9.40387 14.503 9.41897 14.4878 9.43488 14.4761C9.42213 14.4651 9.40937 14.4504 9.39662 14.4357C9.37111 14.4063 9.3456 14.377 9.32009 14.377C9.02673 14.3638 8.73337 14.3572 8.43363 14.3572C8.39941 14.3572 8.36806 14.3839 8.33574 14.4115C8.31986 14.425 8.30375 14.4388 8.28695 14.4496C8.30288 14.462 8.31819 14.477 8.33346 14.4919C8.36709 14.5247 8.40054 14.5574 8.44001 14.5619C8.54543 14.5818 8.65446 14.5793 8.76167 14.5768C8.79714 14.576 8.83241 14.5751 8.86729 14.5751ZM11.3806 11.3432L11.4183 11.328C11.6065 11.2521 11.7928 11.1764 11.9731 11.0945C11.9986 11.0813 12.0177 10.9954 12.005 10.969C11.9858 10.936 11.9157 10.8963 11.8838 10.9095C11.7435 10.9492 11.6032 11.002 11.4629 11.0548C11.3481 11.1011 11.2397 11.1539 11.1376 11.2134C11.1058 11.2332 11.0866 11.3058 11.0866 11.3521C11.0866 11.369 11.105 11.3832 11.1265 11.3999C11.1386 11.4093 11.1517 11.4195 11.1632 11.4313C11.2357 11.4016 11.3083 11.3723 11.3806 11.3432ZM10.4234 13.1485C10.4162 13.1386 10.4099 13.1249 10.4038 13.1117C10.3775 13.0545 10.2903 13.0486 10.2448 13.0957C10.0599 13.2806 9.8813 13.4656 9.71549 13.6571C9.68992 13.6836 9.68713 13.7307 9.68429 13.7788C9.68288 13.8026 9.68145 13.8267 9.67722 13.8486C9.69506 13.8425 9.71474 13.8382 9.73474 13.8339C9.7791 13.8243 9.82502 13.8144 9.85579 13.7826C9.97483 13.6637 10.0882 13.5389 10.2016 13.4142C10.2583 13.3518 10.315 13.2894 10.3724 13.2278C10.3899 13.2187 10.3984 13.2002 10.4083 13.1788C10.4127 13.1691 10.4174 13.1588 10.4234 13.1485ZM5.93369 14.1194C5.94326 14.126 5.95123 14.1343 5.9592 14.1425C5.96717 14.1508 5.97515 14.159 5.98471 14.1656C6.16966 14.06 6.3546 13.9543 6.53955 13.842C6.55868 13.8288 6.57143 13.7628 6.55868 13.7429C6.54592 13.7231 6.48853 13.7099 6.46302 13.7231C6.2972 13.809 6.13777 13.9015 5.98471 14.0005C5.95664 14.0151 5.94916 14.0509 5.94213 14.0847C5.93958 14.0969 5.93709 14.1089 5.93369 14.1194ZM13.2741 13.3586C13.2932 13.4973 13.357 13.5568 13.4463 13.4907C13.6248 13.3586 13.7906 13.2133 13.9564 13.0614C14.1541 12.8831 14.3518 12.6982 14.5432 12.5132C14.6324 12.434 14.6388 12.3415 14.5623 12.2425C14.4891 12.155 14.4309 12.2013 14.37 12.2497C14.3619 12.2562 14.3537 12.2627 14.3455 12.2689C14.2817 12.3151 14.2179 12.3613 14.1605 12.4142C13.9118 12.6519 13.6567 12.8963 13.4144 13.1473C13.3688 13.185 13.3395 13.2396 13.3102 13.2942C13.2985 13.316 13.2868 13.3379 13.2741 13.3586ZM12.732 10.796C12.7471 10.8117 12.7583 10.8274 12.7717 10.8463L12.783 10.8621C12.7962 10.8621 12.8094 10.8643 12.8221 10.8665C12.8402 10.8696 12.8573 10.8726 12.8723 10.8687C12.9299 10.8488 12.9874 10.8295 13.0448 10.8103C13.1782 10.7657 13.3106 10.7213 13.4399 10.6705C13.7332 10.5517 14.0266 10.4262 14.3136 10.2941C14.3412 10.2798 14.3589 10.2413 14.3762 10.2036C14.3828 10.1891 14.3894 10.1748 14.3965 10.162C14.3821 10.1599 14.3664 10.1557 14.3504 10.1514C14.3168 10.1425 14.2821 10.1332 14.2562 10.1422C13.797 10.3271 13.3442 10.512 12.8914 10.7036C12.8452 10.7131 12.809 10.7401 12.7732 10.7667C12.7596 10.7768 12.746 10.7869 12.732 10.796ZM13.9182 11.2782C14.0769 11.2537 14.2213 11.2292 14.3599 11.2057C14.4831 11.1848 14.6017 11.1647 14.7217 11.1461C14.8174 11.1329 14.862 11.08 14.8557 10.981C14.8493 10.8753 14.7919 10.8357 14.6962 10.8489C14.6488 10.8559 14.6016 10.8627 14.5545 10.8695C14.3358 10.901 14.1206 10.932 13.9054 10.981C13.8544 10.9942 13.8034 11.1064 13.797 11.1725C13.7925 11.196 13.8398 11.2263 13.8789 11.2513C13.8946 11.2614 13.909 11.2706 13.9182 11.2782ZM12.7511 12.3547C12.7634 12.3526 12.7757 12.3512 12.7878 12.3498C12.8133 12.3468 12.8379 12.3439 12.8595 12.3349C13.2103 12.1698 13.561 11.9981 13.9054 11.8264C13.9337 11.8117 13.955 11.7755 13.9796 11.7336C13.9883 11.7187 13.9975 11.7032 14.0075 11.6877C13.7205 11.6811 12.8021 12.1764 12.7511 12.3547ZM10.829 10.7399C10.7376 10.7644 10.6064 10.7994 10.5445 10.6189C10.9448 10.3569 11.3885 10.2196 11.8346 10.0816C11.9885 10.034 12.1427 9.98632 12.2955 9.93337C12.5512 9.84477 12.8161 9.7787 13.0827 9.73268C13.1385 10.0023 13.1341 10.0036 12.9113 10.0702L12.8914 10.0761L11.9986 10.368C11.9247 10.3926 11.8509 10.4175 11.777 10.4425L11.7762 10.4427C11.4628 10.5485 11.1487 10.6545 10.829 10.7399ZM11.2461 12.2371C11.2756 12.2294 11.3022 12.2238 11.3268 12.2185C11.4505 12.1922 11.5679 12.1387 11.6839 12.0858C11.7215 12.0686 11.759 12.0515 11.7965 12.0354L12.4195 11.7735C12.5215 11.7339 12.5917 11.6877 12.5407 11.5622C12.4862 11.4353 12.3873 11.4747 12.3011 11.5093L11.2907 11.9201C11.2397 11.9399 11.1887 11.9795 11.1568 12.0257C11.1313 12.0654 11.1121 12.1314 11.1249 12.171C11.1373 12.1925 11.1712 12.2056 11.2022 12.2175C11.219 12.224 11.2349 12.2301 11.2461 12.2371ZM11.3786 13.0696C11.2663 13.0712 11.1481 13.073 11.1249 12.9108C11.1058 12.7787 11.2333 12.6532 11.3991 12.6532L12.3011 12.6747L12.3138 12.6752C12.4832 12.6817 12.6558 12.6884 12.6363 12.8897C12.6223 13.0779 12.5118 13.0742 12.3713 13.0696C12.3486 13.0688 12.3251 13.068 12.3011 13.068L11.3786 13.0696ZM13.746 4.42077C13.7077 4.41417 13.6886 4.41417 13.6758 4.41417C13.6631 4.41417 13.6439 4.41417 13.6312 4.42077C13.1593 4.57268 12.7957 4.86989 12.5215 5.29259C12.5024 5.31901 12.5279 5.39826 12.5534 5.42468C12.8531 5.78794 13.2485 5.98608 13.7013 6.05213C13.742 6.05634 13.7826 6.05518 13.8316 6.05379C13.8594 6.053 13.8899 6.05213 13.9245 6.05213C13.3888 5.55017 13.4144 5.00859 13.746 4.42077ZM15.6146 4.93594C15.2574 5.47752 14.811 5.8738 14.1669 6.0125C14.6324 5.4511 14.5368 4.91612 14.084 4.36133C14.6898 4.36794 15.1618 4.59249 15.6146 4.93594Z"/>
</svg>
