<svg viewBox="0 0 100 100" fill="none" xmlns="http://www.w3.org/2000/svg">
<rect fill="#5D5146" fill-opacity="0.07"/>
<path d="M30.8001 62.2727V66.3328L26.5 62V67.7273H27.1898V63.6678L31.4894 68V62.2727H30.8001ZM34.2912 65.0003C34.2912 64.5894 34.3831 64.2231 34.5675 63.901C34.7567 63.579 35.0133 63.3246 35.3382 63.1376C35.6626 62.9505 36.0302 62.857 36.441 62.857C36.8578 62.857 37.2254 62.9505 37.5443 63.1376C37.8693 63.3246 38.1231 63.579 38.3069 63.901C38.4961 64.2231 38.5908 64.5894 38.5908 65.0003C38.5908 65.4106 38.4961 65.7769 38.3069 66.099C38.1231 66.4211 37.8693 66.6754 37.5443 66.8624C37.2254 67.0495 36.8578 67.143 36.441 67.143C36.0302 67.143 35.6626 67.0495 35.3382 66.8624C35.0133 66.6754 34.7567 66.4211 34.5675 66.099C34.3831 65.7769 34.2912 65.4106 34.2912 65.0003ZM33.5615 65.0003C33.5615 65.3949 33.6315 65.7637 33.7721 66.1063C33.9181 66.4494 34.1211 66.7484 34.3809 67.0027C34.6402 67.2523 34.946 67.4493 35.2972 67.5949C35.6489 67.7352 36.0302 67.8051 36.441 67.8051C36.8578 67.8051 37.2391 67.7352 37.5854 67.5949C37.9365 67.4493 38.2423 67.2523 38.5016 67.0027C38.7615 66.7484 38.9617 66.4494 39.1022 66.1063C39.2483 65.7637 39.321 65.3949 39.321 65.0003C39.321 64.5999 39.2483 64.231 39.1022 63.8937C38.9617 63.5506 38.7615 63.2548 38.5016 63.0052C38.2423 62.7509 37.9365 62.5533 37.5854 62.413C37.2391 62.2675 36.8578 62.1949 36.441 62.1949C36.0302 62.1949 35.6489 62.2675 35.2972 62.413C34.946 62.5533 34.6402 62.7509 34.3809 63.0052C34.1211 63.2548 33.9181 63.5506 33.7721 63.8937C33.6315 64.231 33.5615 64.5999 33.5615 65.0003ZM44.9176 62.2727V67.7273H45.6069V62.2727H44.9176ZM48.7883 64.0413L50.6378 67.2208L52.4873 64.0413L52.9096 67.7273H53.5988L52.9096 62L50.6378 65.9508L48.3666 62L47.6768 67.7273H48.3666L48.7883 64.0413ZM56.2076 66.0911H59.2091L58.9656 65.4674H56.451L56.2076 66.0911ZM57.6922 63.5038L58.6659 65.7012L58.7304 65.8573L59.5581 67.7273H60.3288L57.6922 62L55.0555 67.7273H55.8263L56.6698 65.8105L56.7349 65.6702L57.6922 63.5038ZM64.5059 65.5846H66.3958C66.3471 65.7974 66.2689 65.9975 66.1606 66.1846C66.0577 66.3717 65.9254 66.5377 65.7634 66.6832C65.601 66.8288 65.4062 66.9428 65.1792 67.0258C64.9571 67.1041 64.7061 67.143 64.4249 67.143C64.0245 67.143 63.6618 67.0521 63.3374 66.8703C63.013 66.6885 62.7532 66.4363 62.559 66.1142C62.3697 65.7921 62.2751 65.4206 62.2751 65.0003C62.2751 64.5741 62.3697 64.2026 62.559 63.8858C62.7532 63.5637 63.013 63.3115 63.3374 63.1297C63.6618 62.9479 64.0245 62.857 64.4249 62.857C64.8576 62.857 65.2334 62.94 65.5523 63.1066C65.8712 63.2674 66.1201 63.4933 66.2984 63.7844L66.7853 63.3556C66.6234 63.1013 66.4232 62.8885 66.1852 62.7167C65.9527 62.5454 65.6874 62.4156 65.3898 62.3273C65.0977 62.2391 64.7761 62.1949 64.4249 62.1949C64.0135 62.1949 63.6323 62.2648 63.2805 62.4051C62.9293 62.5402 62.6236 62.7351 62.3643 62.9894C62.1044 63.239 61.9015 63.5348 61.7554 63.8779C61.6149 64.221 61.5448 64.5946 61.5448 65.0003C61.5448 65.4054 61.6149 65.7795 61.7554 66.1221C61.9015 66.4652 62.1044 66.7636 62.3643 67.0185C62.6236 67.2675 62.9293 67.4625 63.2805 67.6028C63.6323 67.7378 64.0135 67.8051 64.4249 67.8051C64.8576 67.8051 65.241 67.7299 65.5764 67.5791C65.9172 67.4236 66.2038 67.2129 66.4363 66.9481C66.6693 66.6832 66.8449 66.3816 66.9636 66.0443C67.0829 65.7012 67.1425 65.3402 67.1425 64.9609H64.5059V65.5846ZM69.6358 67.7273H72.5V67.1041H69.6358V67.7273ZM69.6358 62.8959H72.5V62.2727H69.6358V62.8959ZM69.6358 65.078H72.3375V64.4543H69.6358V65.078ZM69.2545 62.2727V67.7273H69.9443V62.2727H69.2545Z" fill="#818181"/>
<path d="M27.6578 77.0911H30.6743L30.4297 76.4674H27.9024L27.6578 77.0911ZM29.1498 74.5038L30.1284 76.7012L30.1933 76.8573L31.0251 78.7273H31.7997L29.1498 73L26.5 78.7273H27.2746L28.1223 76.8105L28.1878 76.6702L29.1498 74.5038ZM34.5353 77.4962L32.6601 73.2727H31.8854L34.5353 79L37.1851 73.2727H36.4105L34.5353 77.4962ZM38.4287 77.0911H41.4457L41.2011 76.4674H38.6733L38.4287 77.0911ZM39.9207 74.5038L40.8993 76.7012L40.9647 76.8573L41.7959 78.7273H42.5706L39.9207 73L37.2709 78.7273H38.0455L38.8938 76.8105L38.9586 76.6702L39.9207 74.5038ZM44.0802 73.2727V78.7273H44.7734V73.2727H44.0802ZM46.8939 73.2727V78.7273H49.829V78.1041H47.5871V73.2727H46.8939ZM51.3799 73.2727V78.7273H52.0731V73.2727H51.3799ZM54.74 77.0911H57.7566L57.5119 76.4674H54.9847L54.74 77.0911ZM56.2321 74.5038L57.2101 76.7012L57.2755 76.8573L58.1073 78.7273H58.8819L56.2321 73L53.5822 78.7273H54.3568L55.2046 76.8105L55.27 76.6702L56.2321 74.5038ZM60.9375 75.8442H61.8589C62.2014 75.8442 62.4977 75.7974 62.7478 75.7039C63.0029 75.6104 63.2014 75.4727 63.3427 75.2909C63.4839 75.1091 63.5549 74.8911 63.5549 74.6362C63.5549 74.3246 63.4839 74.0703 63.3427 73.8728C63.2014 73.6699 63.0029 73.5197 62.7478 73.4209C62.4977 73.3221 62.2014 73.2727 61.8589 73.2727H60.3915V78.7273H61.9402C62.3102 78.7273 62.639 78.67 62.927 78.556C63.2206 78.4367 63.4515 78.2597 63.6197 78.0258C63.794 77.7873 63.8809 77.4883 63.8809 77.13C63.8809 76.8804 63.8319 76.6649 63.7341 76.4831C63.6362 76.3013 63.4977 76.1532 63.3185 76.0391C63.1442 75.9193 62.9408 75.8311 62.7066 75.7738C62.4729 75.7171 62.2178 75.6881 61.9402 75.6881H60.9375V76.0544H61.9402C62.1255 76.0544 62.2937 76.078 62.446 76.1248C62.5983 76.1663 62.7286 76.2315 62.8374 76.3197C62.9512 76.408 63.0386 76.5168 63.098 76.6466C63.1579 76.7769 63.1876 76.9245 63.1876 77.0911C63.1876 77.3144 63.1337 77.5041 63.0249 77.6596C62.9215 77.8157 62.7748 77.9349 62.5845 78.0185C62.3998 78.1015 62.1849 78.143 61.9402 78.143H61.0842V73.857H61.8589C62.1469 73.857 62.3861 73.93 62.5763 74.0751C62.7665 74.2153 62.8616 74.4155 62.8616 74.6751C62.8616 74.8469 62.8182 74.9919 62.7313 75.1117C62.6445 75.231 62.5246 75.3219 62.3723 75.3845C62.2206 75.447 62.0491 75.478 61.8589 75.478H60.9375V75.8442ZM65.7528 73.2727V78.7273H68.688V78.1041H66.446V73.2727H65.7528ZM70.622 78.7273H73.5V78.1041H70.622V78.7273ZM70.622 73.8959H73.5V73.2727H70.622V73.8959ZM70.622 76.078H73.3367V75.4543H70.622V76.078ZM70.2388 73.2727V78.7273H70.9321V73.2727H70.2388Z" fill="#818181"/>
<g opacity="0.5">
<path fill-rule="evenodd" clip-rule="evenodd" d="M47.6757 29.6983C47.5898 29.6983 47.461 29.6367 47.4267 29.5662C47.1826 29.0734 46.9616 28.5698 46.72 28.0759C46.6032 27.837 46.4726 27.57 46.8256 27.4701L47.8309 27.1926C50.1526 26.5514 52.4652 25.8884 54.7941 25.2844C54.9573 25.2403 54.9744 25.1699 54.9401 25.0201C54.8542 24.7295 54.7769 24.4301 54.7083 24.1306C54.6825 24.0073 54.6138 23.9545 54.4936 23.9369C54.309 23.9061 54.1222 23.873 53.9354 23.84C53.7487 23.807 53.5619 23.7739 53.3773 23.7431C53.1158 23.6999 53.1121 23.1844 53.3859 23.1442C53.695 23.1002 54.0041 23.0474 54.3647 22.9857C54.1157 22.4397 53.8753 21.9289 53.6263 21.3828C53.8753 21.2684 54.0986 21.1539 54.3562 21.0306C54.9143 22.334 55.4639 23.6198 56.022 24.9497C56.6071 24.0695 57.1544 23.1644 57.748 22.29C57.8682 22.1138 58.0571 21.9377 58.246 21.876C59.3537 21.5061 60.47 21.1451 61.6378 21.013C61.9555 20.9777 61.9899 20.9953 61.9985 21.3124C62.0237 22.0282 61.7533 22.6928 61.3373 23.2587C60.7362 24.0866 59.9548 24.6943 59.0789 25.1611C58.4555 25.4874 57.8173 25.7735 57.1755 26.0612L57.0979 26.096C56.9169 26.1772 56.7357 26.2586 56.5544 26.3412C56.3741 26.4205 56.2882 26.4997 56.3312 26.7287C56.6751 28.3751 56.9885 30.0275 57.3297 31.6744C57.518 32.5835 57.7066 33.4939 57.8424 34.4084C58.1601 36.5573 58.4263 38.7062 58.6754 40.8639C58.7784 41.7535 58.8042 42.6606 58.8471 43.5589C58.9657 45.6936 59.0489 47.8303 59.1476 49.966L59.2507 52.1898L59.2764 52.7182C59.285 52.8327 59.2421 52.8943 59.1219 52.8943C58.8127 52.9031 58.495 52.9207 58.1859 52.9384C58.0399 52.9472 58.0313 52.8503 58.0228 52.7446C57.905 51.319 57.8489 49.876 57.499 48.482L56.3913 44.0697L56.1743 43.2187C56.1196 43.0021 56.0638 42.7817 56.0049 42.5549C55.0623 43.2287 54.7719 43.4886 54.7705 44.697C54.7697 45.3829 54.8906 46.0674 55.026 46.7382C55.3873 48.6692 55.8674 50.5719 56.3655 52.4716C56.3741 52.5156 56.3827 52.5597 56.3999 52.5949C56.4857 52.7974 56.3999 52.8415 56.2109 52.8503C55.9276 52.8679 55.6442 52.9031 55.3608 52.9384C55.2235 52.956 55.1634 52.9119 55.1118 52.771C54.19 50.0786 53.1753 47.4253 52.4585 44.6686C52.4242 44.5453 52.3984 44.4924 52.261 44.5365C50.7567 44.994 49.2303 45.1558 47.6928 45.4276C47.607 45.4364 47.5039 45.4981 47.461 45.5685C46.4306 47.3035 45.0138 48.5893 43.1676 49.3644C43.0388 49.4172 43.0044 49.4789 43.0302 49.6286C43.2147 50.7358 43.4528 51.8555 43.5368 52.9752C43.5368 52.9859 42.5157 53.0028 42.4205 53.0028C42.3776 53.0028 42.3175 52.906 42.3089 52.8443L42.2429 52.5292L41.579 49.2851C41.5533 49.1706 41.5962 49.0033 41.6649 48.9064C42.5207 47.7586 43.3995 46.6399 44.2401 45.4904C44.1387 45.485 44.0415 45.4812 43.9471 45.4775C43.4624 45.4588 42.9941 45.3096 42.6696 45.7635C42.0599 46.6266 41.3043 47.3399 40.3941 47.8419C40.0678 48.0181 39.7243 48.1502 39.3636 48.3087C39.7539 49.8262 40.1463 51.3432 40.5314 52.8619C40.1107 52.8619 39.7243 52.8707 39.3379 52.8531C39.3035 52.8531 39.252 52.7474 39.2348 52.6858L38.2817 49.5945C38.135 49.1254 37.8059 48.5344 37.8066 48.0397C37.8068 47.9514 37.8356 47.8693 37.8953 47.7803C38.6792 46.6847 39.4586 45.586 40.2386 44.4877C40.3169 44.3775 40.3224 44.2752 40.2738 44.1506C39.7243 42.7679 39.2262 41.3676 38.9601 39.8968L38.8999 39.5986L38.8568 39.5624C38.6508 39.8882 38.4448 40.214 38.2216 40.5574C37.7227 39.8454 38.2645 38.8809 38.8656 38.4184C40.1914 37.3939 41.5429 36.4005 42.8571 35.3615C43.5846 34.7864 44.3063 34.1843 45.2253 33.9434C46.4292 33.6204 47.7416 33.5602 48.9737 33.3782C49.7568 33.2626 50.5402 33.1469 51.325 33.0345C51.5655 32.9993 51.6943 32.9112 51.7801 32.6734C52.0979 31.7397 52.4419 30.8223 52.7762 29.8992C52.8152 29.7395 52.6958 29.7568 52.5701 29.7407C50.9386 29.7231 49.3072 29.7159 47.6757 29.6983ZM48.5915 37.2928C48.5584 37.2998 48.5225 37.3074 48.4828 37.3176C48.4678 37.3083 48.4463 37.3001 48.4238 37.2915C48.382 37.2755 48.3364 37.2581 48.3197 37.2295C48.3025 37.1767 48.3283 37.0886 48.3626 37.0357C48.4055 36.9741 48.4742 36.9212 48.5429 36.8948L49.9034 36.3471C50.0194 36.3009 50.1526 36.2484 50.2259 36.4176C50.2946 36.5849 50.2002 36.6466 50.0628 36.6994L49.224 37.0487C49.1735 37.0701 49.123 37.0929 49.0723 37.1158C48.9161 37.1864 48.7581 37.2577 48.5915 37.2928ZM47.9212 35.3212C47.7982 35.3538 47.6215 35.4005 47.5383 35.1598C48.0772 34.8104 48.6745 34.6274 49.2752 34.4434C49.4824 34.3799 49.6901 34.3163 49.8958 34.2457C50.2401 34.1275 50.5968 34.0394 50.9558 33.9781C51.0309 34.3376 51.0249 34.3393 50.725 34.4281L49.4961 34.8252C49.3962 34.8582 49.2963 34.8916 49.1965 34.9249C48.7743 35.0661 48.3518 35.2073 47.9212 35.3212ZM46.13 36.5866V36.569C46.0168 36.569 45.903 36.5695 45.7887 36.5701C45.4437 36.5717 45.0937 36.5734 44.739 36.5602C44.5844 36.5514 44.4384 36.4985 44.2925 36.4457C44.2581 36.4369 44.2066 36.34 44.2152 36.3224C44.2339 36.2989 44.2526 36.2723 44.2716 36.2454C44.3309 36.1612 44.3926 36.0736 44.4642 36.067C44.9021 36.0229 45.3486 36.0141 45.7952 36.0141C46.0459 36.0141 46.3022 36.0373 46.555 36.0601C46.614 36.0655 46.6727 36.0708 46.7311 36.0758L46.7475 36.0769C46.8713 36.0849 46.9969 36.0931 46.9887 36.2871C46.9716 36.4985 46.8943 36.5866 46.7054 36.5866H46.13ZM43.0517 38.4705C42.9839 38.4983 42.9137 38.527 42.8413 38.5594C42.8177 38.5461 42.7908 38.5324 42.764 38.5186C42.6835 38.4773 42.603 38.4361 42.6095 38.4096C42.6266 38.3039 42.6781 38.1542 42.7554 38.1102C43.3479 37.7668 43.9489 37.4409 44.5499 37.1151C44.6959 37.0446 44.8678 37.0005 44.9451 37.2031C45.0138 37.3792 44.9193 37.4761 44.7476 37.5642C44.4741 37.7044 44.2066 37.8569 43.9398 38.009C43.7542 38.1148 43.569 38.2204 43.3823 38.3216C43.279 38.3773 43.1688 38.4225 43.0517 38.4705ZM45.3142 38.8946C45.3452 38.8975 45.3767 38.9005 45.4088 38.9028C45.4345 39.2287 45.3658 39.2991 45.1082 39.3256C44.842 39.3476 44.578 39.3762 44.3139 39.4048C44.0499 39.4334 43.7858 39.4621 43.5197 39.4841C43.3823 39.4929 43.2363 39.4489 43.1075 39.4048C43.0731 39.3872 43.0474 39.2111 43.0817 39.1846C43.1762 39.1142 43.2964 39.0349 43.4166 39.0261C43.8288 38.9799 44.2409 38.9485 44.6531 38.9171C44.7905 38.9067 44.9279 38.8962 45.0653 38.8852C45.1471 38.8788 45.229 38.8865 45.3142 38.8946ZM45.2429 37.9645C45.2089 37.9654 45.1728 37.9664 45.134 37.9693C45.1963 37.7214 45.3648 37.6696 45.5174 37.6226C45.7726 37.544 46.0254 37.4553 46.2781 37.3667C46.4676 37.3002 46.6571 37.2338 46.8477 37.1716C47.0037 37.1206 47.1597 37.0697 47.315 37.0181C47.3265 37.0152 47.3379 37.0103 47.3494 37.0054C47.3723 36.9956 47.3952 36.9858 47.4181 36.9917C47.4782 37.0093 47.5383 37.0357 47.5898 37.0622C47.5793 37.0811 47.5703 37.1025 47.5616 37.1235C47.5417 37.1712 47.5225 37.2173 47.4868 37.2295C47.3064 37.3088 47.1175 37.3792 46.9286 37.4409L45.4345 37.9429C45.3763 37.9608 45.3142 37.9625 45.2429 37.9645ZM45.4549 35.452C45.4193 35.462 45.3814 35.4727 45.3401 35.4857C45.3299 35.4795 45.3169 35.4723 45.3032 35.4646C45.2588 35.44 45.2067 35.4111 45.2198 35.3976C45.2284 35.3184 45.2542 35.2215 45.3143 35.1775C45.4603 35.0718 45.632 34.9837 45.7952 34.9044L45.9039 34.8555C46.1407 34.7488 46.3736 34.6439 46.6195 34.5522C46.6733 34.5338 46.7437 34.5538 46.8134 34.5736C46.8439 34.5822 46.8741 34.5908 46.9029 34.5962C46.8805 34.629 46.8628 34.6679 46.8455 34.7062C46.8164 34.7705 46.7882 34.8328 46.7397 34.8604C46.4274 35.0243 46.1152 35.1692 45.7977 35.3166L45.6234 35.3976C45.5694 35.4198 45.5153 35.435 45.4549 35.452ZM47.9333 39.6955C47.8831 39.6897 47.8366 39.6469 47.789 39.6032C47.7632 39.5795 47.7372 39.5555 47.71 39.5369C47.7358 39.5193 47.7615 39.4958 47.7873 39.4723C47.8388 39.4254 47.8903 39.3784 47.9419 39.3784C48.397 39.3696 48.8521 39.3784 49.3072 39.396C49.3501 39.396 49.3975 39.4455 49.443 39.4931C49.4611 39.512 49.4789 39.5307 49.4961 39.5457C49.4745 39.5623 49.453 39.5832 49.4312 39.6044C49.3835 39.6507 49.3345 39.6982 49.2814 39.7043C49.1344 39.7231 48.983 39.7195 48.8304 39.716C48.7273 39.7135 48.6234 39.7116 48.5193 39.7097C48.3239 39.7062 48.1274 39.7026 47.9333 39.6955ZM41.1239 37.9605C41.3644 37.7667 42.7297 37.2559 43.1075 37.2383C43.0846 37.2696 43.0655 37.2986 43.0483 37.3245C43.0076 37.3863 42.9781 37.4311 42.9357 37.4497C42.4909 37.6308 42.046 37.8018 41.5974 37.9742L41.5963 37.9746C41.4564 38.0283 41.3162 38.0822 41.1755 38.1366C41.1542 38.1421 41.1264 38.1408 41.088 38.139C41.0643 38.1379 41.0365 38.1366 41.0037 38.1366C41.0202 38.1112 41.0341 38.0877 41.0467 38.0662C41.0735 38.0206 41.0947 37.9844 41.1239 37.9605ZM45.2799 40.4441V40.4352C45.233 40.4352 45.1855 40.4363 45.1377 40.4374C44.9934 40.4407 44.8466 40.4441 44.7046 40.4176C44.6515 40.4116 44.6065 40.368 44.5612 40.3242C44.5406 40.3043 44.52 40.2844 44.4985 40.2679C44.5212 40.2534 44.5429 40.2351 44.5642 40.217C44.6078 40.1803 44.65 40.1446 44.696 40.1446C45.0996 40.1446 45.4946 40.1534 45.8896 40.171C45.924 40.171 45.9583 40.2102 45.9927 40.2493C46.0098 40.2689 46.027 40.2885 46.0442 40.3031C46.0227 40.3188 46.0024 40.339 45.9824 40.3589C45.9462 40.3947 45.9111 40.4296 45.8724 40.4352C45.7243 40.4485 45.5762 40.4468 45.4281 40.4452C45.3787 40.4446 45.3293 40.4441 45.2799 40.4441ZM48.664 36.1256C48.5666 36.1645 48.4689 36.2035 48.3712 36.2431C48.3558 36.2273 48.3381 36.2138 48.3219 36.2013C48.2928 36.179 48.2682 36.16 48.2682 36.1374C48.2682 36.0758 48.2939 35.9789 48.3369 35.9525C48.4742 35.8732 48.6202 35.8028 48.7748 35.7411C48.9637 35.6707 49.1526 35.6002 49.3415 35.5474C49.3844 35.5297 49.4789 35.5826 49.5047 35.6266C49.5218 35.6618 49.4961 35.7763 49.4617 35.794C49.219 35.9032 48.9682 36.0041 48.7148 36.1053L48.664 36.1256ZM47.3488 38.4838C47.357 38.5014 47.3654 38.5197 47.3751 38.5329C47.3671 38.5466 47.3608 38.5603 47.3548 38.5732C47.3415 38.6018 47.3301 38.6265 47.3064 38.6386C47.2292 38.7208 47.1528 38.804 47.0765 38.8872C46.9238 39.0535 46.7712 39.2199 46.6109 39.3784C46.5695 39.4209 46.5076 39.4341 46.4479 39.4469C46.421 39.4526 46.3945 39.4583 46.3705 39.4665C46.3762 39.4373 46.3781 39.4051 46.38 39.3733C46.3838 39.3092 46.3876 39.2464 46.422 39.2111C46.6453 38.9557 46.8857 38.7091 47.1347 38.4625C47.1959 38.3997 47.3134 38.4076 47.3488 38.4838ZM41.3644 39.8584C41.3536 39.8474 41.3429 39.8364 41.33 39.8276C41.3346 39.8135 41.3379 39.7975 41.3414 39.7812C41.3508 39.7363 41.3609 39.6884 41.3987 39.669C41.6048 39.5369 41.8195 39.4136 42.0427 39.2991C42.0771 39.2815 42.1544 39.2991 42.1715 39.3256C42.1887 39.352 42.1715 39.4401 42.1458 39.4577C41.8967 39.6074 41.6477 39.7483 41.3987 39.8892C41.3858 39.8804 41.3751 39.8694 41.3644 39.8584ZM51.4453 38.9892C51.3251 39.0773 51.2392 38.998 51.2134 38.8131C51.2306 38.7854 51.2464 38.7563 51.2621 38.7272C51.3016 38.6544 51.341 38.5816 51.4023 38.5313C51.7286 38.1966 52.0721 37.8708 52.407 37.5537C52.4843 37.4832 52.5701 37.4216 52.656 37.3599C52.6671 37.3517 52.6781 37.343 52.689 37.3344C52.771 37.2699 52.8494 37.2081 52.948 37.3247C53.051 37.4568 53.0424 37.5801 52.9222 37.6858C52.6646 37.9324 52.3984 38.179 52.1322 38.4168C51.909 38.6194 51.6857 38.8131 51.4453 38.9892ZM50.5371 35.4631C50.5189 35.4378 50.5039 35.4169 50.4835 35.396C50.5025 35.3839 50.5207 35.3704 50.539 35.3569C50.5873 35.3213 50.636 35.2855 50.6982 35.2727C51.3079 35.0173 51.9175 34.7707 52.5358 34.5241C52.5707 34.5122 52.6175 34.5245 52.6627 34.5364C52.6842 34.5421 52.7053 34.5477 52.7247 34.5505C52.7152 34.5676 52.7063 34.5867 52.6974 34.606C52.6741 34.6562 52.6503 34.7076 52.6131 34.7267C52.2267 34.9028 51.8317 35.0701 51.4367 35.2287C51.2626 35.2964 51.0843 35.3555 50.9048 35.415C50.8275 35.4407 50.75 35.4664 50.6725 35.4929C50.6523 35.498 50.6292 35.4941 50.6049 35.49C50.5878 35.4871 50.57 35.4841 50.5522 35.4841L50.5371 35.4631ZM52.6754 35.9423C52.4888 35.9736 52.2944 36.0063 52.0807 36.0389C52.0684 36.0288 52.0489 36.0165 52.0277 36.003C51.9751 35.9697 51.9114 35.9294 51.9175 35.898C51.9261 35.8099 51.9948 35.6602 52.0635 35.6426C52.3532 35.5774 52.6429 35.536 52.9374 35.4939L52.9395 35.4936L52.9437 35.493C53.005 35.4843 53.0665 35.4755 53.1283 35.4664C53.2571 35.4488 53.3344 35.5017 53.3429 35.6426C53.3515 35.7747 53.2914 35.8451 53.1626 35.8628C53.001 35.8876 52.8413 35.9144 52.6754 35.9423ZM50.5587 37.4678C50.5424 37.4697 50.5258 37.4716 50.5093 37.4744C50.578 37.2366 51.8145 36.5761 52.2009 36.5849C52.1874 36.6056 52.1751 36.6264 52.1634 36.6461C52.1303 36.702 52.1016 36.7504 52.0635 36.7699C51.5998 36.9989 51.1276 37.2278 50.6553 37.448C50.6261 37.46 50.593 37.4638 50.5587 37.4678ZM51.8488 26.8949C51.4023 27.6787 51.368 28.4009 52.0893 29.0702C51.3762 29.0702 50.7059 28.789 50.2431 28.2336C50.2087 28.1983 50.1744 28.0926 50.2002 28.0574C50.5694 27.4938 51.0588 27.0974 51.6943 26.8949C51.7334 26.8748 51.7971 26.8859 51.8403 26.8934L51.8488 26.8949ZM54.3648 27.5818C53.8839 28.304 53.2829 28.8324 52.4156 29.0174C53.0424 28.2688 52.9136 27.5554 52.304 26.8156C53.1197 26.8244 53.7551 27.1239 54.3648 27.5818ZM48.6613 38.4271C48.51 38.4293 48.3509 38.4316 48.3197 38.2153C48.2939 38.0392 48.4656 37.8719 48.6889 37.8719L49.9205 37.9012C50.1486 37.9099 50.3809 37.9188 50.3547 38.1873C50.3359 38.4382 50.1871 38.4333 49.9979 38.4271C49.6936 38.4171 49.3878 38.4205 49.0827 38.4238C48.9421 38.4254 48.8016 38.4269 48.6613 38.4271Z" fill="#6F6F6F"/>
</g>
</svg>
