<svg viewBox="0 0 370 370" fill="none" preserveAspectRatio="xMidYMid meet" xmlns="http://www.w3.org/2000/svg">
<path d="M150.361 206.808V214.535L142.5 206.289V217.189H143.761V209.463L151.621 217.708V206.808H150.361ZM156.743 211.999C156.743 211.217 156.911 210.52 157.248 209.907C157.594 209.294 158.063 208.81 158.657 208.454C159.25 208.098 159.922 207.92 160.673 207.92C161.435 207.92 162.107 208.098 162.69 208.454C163.284 208.81 163.748 209.294 164.084 209.907C164.43 210.52 164.603 211.217 164.603 211.999C164.603 212.78 164.43 213.477 164.084 214.09C163.748 214.703 163.284 215.187 162.69 215.543C162.107 215.899 161.435 216.077 160.673 216.077C159.922 216.077 159.25 215.899 158.657 215.543C158.063 215.187 157.594 214.703 157.248 214.09C156.911 213.477 156.743 212.78 156.743 211.999ZM155.409 211.999C155.409 212.75 155.537 213.452 155.794 214.104C156.061 214.757 156.432 215.326 156.907 215.81C157.381 216.285 157.94 216.66 158.582 216.937C159.225 217.204 159.922 217.337 160.673 217.337C161.435 217.337 162.132 217.204 162.765 216.937C163.407 216.66 163.966 216.285 164.44 215.81C164.915 215.326 165.281 214.757 165.538 214.104C165.805 213.452 165.938 212.75 165.938 211.999C165.938 211.237 165.805 210.535 165.538 209.893C165.281 209.24 164.915 208.677 164.44 208.202C163.966 207.718 163.407 207.342 162.765 207.075C162.132 206.798 161.435 206.66 160.673 206.66C159.922 206.66 159.225 206.798 158.582 207.075C157.94 207.342 157.381 207.718 156.907 208.202C156.432 208.677 156.061 209.24 155.794 209.893C155.537 210.535 155.409 211.237 155.409 211.999ZM176.169 206.808V217.189H177.429V206.808H176.169ZM183.245 210.174L186.626 216.225L190.007 210.174L190.779 217.189H192.039L190.779 206.289L186.626 213.808L182.474 206.289L181.213 217.189H182.474L183.245 210.174ZM196.808 214.075H202.295L201.85 212.888H197.253L196.808 214.075ZM199.522 209.151L201.302 213.333L201.42 213.63L202.933 217.189H204.342L199.522 206.289L194.702 217.189H196.111L197.653 213.541L197.772 213.274L199.522 209.151ZM211.978 213.111H215.433C215.344 213.516 215.201 213.897 215.003 214.253C214.815 214.609 214.573 214.925 214.277 215.202C213.98 215.479 213.624 215.696 213.209 215.854C212.803 216.003 212.344 216.077 211.83 216.077C211.098 216.077 210.435 215.904 209.842 215.558C209.249 215.212 208.774 214.732 208.419 214.119C208.073 213.506 207.9 212.799 207.9 211.999C207.9 211.188 208.073 210.481 208.419 209.878C208.774 209.265 209.249 208.785 209.842 208.439C210.435 208.093 211.098 207.92 211.83 207.92C212.621 207.92 213.308 208.078 213.891 208.395C214.474 208.701 214.929 209.131 215.255 209.685L216.145 208.869C215.849 208.385 215.483 207.98 215.048 207.653C214.623 207.327 214.138 207.08 213.594 206.912C213.06 206.744 212.472 206.66 211.83 206.66C211.078 206.66 210.381 206.793 209.738 207.06C209.096 207.317 208.537 207.688 208.063 208.172C207.588 208.647 207.217 209.21 206.95 209.863C206.693 210.516 206.565 211.227 206.565 211.999C206.565 212.77 206.693 213.482 206.95 214.134C207.217 214.787 207.588 215.355 208.063 215.84C208.537 216.314 209.096 216.685 209.738 216.952C210.381 217.209 211.078 217.337 211.83 217.337C212.621 217.337 213.322 217.194 213.935 216.907C214.558 216.611 215.082 216.21 215.507 215.706C215.933 215.202 216.254 214.628 216.471 213.986C216.689 213.333 216.798 212.646 216.798 211.924H211.978V213.111ZM221.356 217.189H226.592V216.003H221.356V217.189ZM221.356 207.994H226.592V206.808H221.356V207.994ZM221.356 212.147H226.295V210.96H221.356V212.147ZM220.659 206.808V217.189H221.92V206.808H220.659Z" fill="#C4C4C4"/>
<path d="M144.606 234.075H150.093L149.648 232.888H145.051L144.606 234.075ZM147.32 229.151L149.1 233.333L149.218 233.63L150.731 237.189H152.14L147.32 226.289L142.5 237.189H143.909L145.451 233.541L145.57 233.274L147.32 229.151ZM157.116 234.846L153.705 226.808H152.296L157.116 237.708L161.936 226.808H160.527L157.116 234.846ZM164.198 234.075H169.686L169.241 232.888H164.643L164.198 234.075ZM166.912 229.151L168.692 233.333L168.811 233.63L170.323 237.189H171.732L166.912 226.289L162.092 237.189H163.501L165.044 233.541L165.162 233.274L166.912 229.151ZM174.478 226.808V237.189H175.739V226.808H174.478ZM179.596 226.808V237.189H184.935V236.003H180.857V226.808H179.596ZM187.756 226.808V237.189H189.017V226.808H187.756ZM193.868 234.075H199.355L198.91 232.888H194.313L193.868 234.075ZM196.582 229.151L198.361 233.333L198.48 233.63L199.993 237.189H201.402L196.582 226.289L191.762 237.189H193.171L194.713 233.541L194.832 233.274L196.582 229.151ZM205.141 231.702H206.817C207.44 231.702 207.979 231.613 208.434 231.435C208.898 231.257 209.259 230.995 209.516 230.649C209.773 230.303 209.902 229.888 209.902 229.403C209.902 228.81 209.773 228.326 209.516 227.95C209.259 227.564 208.898 227.278 208.434 227.09C207.979 226.902 207.44 226.808 206.817 226.808H204.148V237.189H206.965C207.638 237.189 208.236 237.08 208.76 236.863C209.294 236.636 209.714 236.299 210.02 235.854C210.337 235.4 210.495 234.831 210.495 234.149C210.495 233.674 210.406 233.264 210.228 232.918C210.05 232.572 209.798 232.29 209.472 232.073C209.155 231.845 208.785 231.677 208.359 231.568C207.934 231.46 207.47 231.405 206.965 231.405H205.141V232.102H206.965C207.302 232.102 207.608 232.147 207.885 232.236C208.162 232.315 208.399 232.439 208.597 232.607C208.804 232.775 208.963 232.982 209.071 233.229C209.18 233.477 209.234 233.758 209.234 234.075C209.234 234.5 209.136 234.861 208.938 235.157C208.75 235.454 208.483 235.681 208.137 235.84C207.801 235.998 207.41 236.077 206.965 236.077H205.408V227.92H206.817C207.341 227.92 207.776 228.059 208.122 228.335C208.468 228.602 208.641 228.983 208.641 229.477C208.641 229.804 208.562 230.08 208.404 230.308C208.246 230.535 208.028 230.708 207.751 230.827C207.475 230.946 207.163 231.005 206.817 231.005H205.141V231.702ZM213.9 226.808V237.189H219.239V236.003H215.161V226.808H213.9ZM222.757 237.189H227.992V236.003H222.757V237.189ZM222.757 227.994H227.992V226.808H222.757V227.994ZM222.757 232.147H227.695V230.96H222.757V232.147ZM222.06 226.808V237.189H223.321V226.808H222.06Z" fill="#C4C4C4"/>
<path fill-rule="evenodd" clip-rule="evenodd" d="M180.851 141.482C180.679 141.482 180.422 141.358 180.353 141.216C179.865 140.222 179.423 139.207 178.94 138.211C178.706 137.73 178.445 137.191 179.151 136.99L181.161 136.43C185.805 135.138 190.43 133.801 195.088 132.583C195.414 132.494 195.449 132.352 195.38 132.05C195.208 131.464 195.054 130.861 194.916 130.257C194.865 130.008 194.727 129.902 194.487 129.866C194.118 129.804 193.744 129.738 193.37 129.671C192.997 129.605 192.623 129.538 192.254 129.476C191.731 129.389 191.724 128.349 192.271 128.268C192.89 128.18 193.508 128.073 194.229 127.949C193.731 126.848 193.25 125.818 192.752 124.717C193.25 124.486 193.697 124.256 194.212 124.007C195.328 126.635 196.427 129.227 197.544 131.908C198.714 130.134 199.808 128.309 200.996 126.546C201.236 126.191 201.614 125.836 201.992 125.712C204.207 124.966 206.44 124.238 208.775 123.971C209.411 123.9 209.479 123.936 209.497 124.575C209.547 126.018 209.006 127.358 208.174 128.499C206.972 130.168 205.409 131.393 203.658 132.335C202.411 132.993 201.134 133.569 199.851 134.149L199.695 134.219C199.333 134.383 198.971 134.547 198.608 134.714C198.248 134.874 198.076 135.033 198.162 135.495C198.85 138.814 199.477 142.146 200.159 145.466C200.536 147.299 200.913 149.135 201.184 150.978C201.82 155.311 202.352 159.643 202.85 163.994C203.056 165.787 203.108 167.616 203.194 169.427C203.431 173.731 203.597 178.039 203.795 182.344L204.001 186.828L204.052 187.893C204.07 188.124 203.984 188.248 203.743 188.248C203.125 188.266 202.49 188.302 201.871 188.337C201.579 188.355 201.562 188.16 201.545 187.947C201.31 185.072 201.197 182.163 200.498 179.353L198.282 170.457L197.848 168.741C197.739 168.304 197.627 167.86 197.509 167.403C195.624 168.761 195.043 169.285 195.041 171.721C195.039 173.104 195.281 174.484 195.552 175.837C196.274 179.73 197.234 183.566 198.231 187.396C198.248 187.485 198.265 187.574 198.299 187.645C198.471 188.053 198.299 188.142 197.922 188.16C197.355 188.195 196.788 188.266 196.221 188.337C195.947 188.373 195.826 188.284 195.723 188C193.88 182.572 191.85 177.222 190.417 171.664C190.348 171.416 190.296 171.309 190.022 171.398C187.013 172.32 183.96 172.646 180.885 173.195C180.714 173.212 180.507 173.337 180.422 173.479C178.361 176.977 175.527 179.569 171.835 181.132C171.577 181.238 171.509 181.362 171.56 181.664C171.929 183.897 172.405 186.154 172.573 188.412C172.573 188.433 170.531 188.467 170.341 188.467C170.255 188.467 170.135 188.272 170.117 188.148L169.985 187.512L168.658 180.972C168.606 180.741 168.692 180.404 168.829 180.208C170.541 177.894 172.299 175.639 173.98 173.321C173.777 173.31 173.583 173.303 173.394 173.295C172.424 173.257 171.488 172.957 170.839 173.872C169.619 175.612 168.108 177.05 166.288 178.062C165.635 178.417 164.948 178.684 164.227 179.003C165.007 182.063 165.792 185.121 166.563 188.183C165.721 188.183 164.948 188.201 164.175 188.165C164.107 188.165 164.004 187.952 163.969 187.828L162.063 181.596C161.77 180.65 161.111 179.458 161.113 178.461C161.113 178.283 161.171 178.117 161.29 177.938C162.858 175.729 164.417 173.514 165.977 171.3C166.133 171.077 166.144 170.871 166.047 170.62C164.948 167.832 163.952 165.009 163.42 162.044L163.3 161.442L163.213 161.37C162.801 162.026 162.389 162.683 161.943 163.375C160.945 161.94 162.029 159.995 163.231 159.063C165.882 156.998 168.585 154.995 171.214 152.9C172.669 151.74 174.112 150.527 175.95 150.041C178.358 149.39 180.983 149.268 183.447 148.901C185.013 148.668 186.58 148.435 188.15 148.208C188.631 148.137 188.888 147.96 189.06 147.48C189.695 145.598 190.383 143.748 191.052 141.887C191.13 141.565 190.891 141.6 190.64 141.568C187.377 141.532 184.114 141.518 180.851 141.482ZM182.683 156.794C182.616 156.808 182.545 156.823 182.465 156.844C182.435 156.825 182.392 156.808 182.347 156.791C182.264 156.759 182.172 156.724 182.139 156.666C182.105 156.56 182.156 156.382 182.225 156.275C182.311 156.151 182.448 156.045 182.585 155.991L185.306 154.887C185.538 154.794 185.805 154.688 185.951 155.029C186.089 155.367 185.9 155.491 185.625 155.597L183.948 156.302C183.847 156.345 183.746 156.391 183.644 156.437C183.332 156.579 183.016 156.723 182.683 156.794ZM181.342 152.819C181.096 152.884 180.743 152.979 180.576 152.493C181.654 151.789 182.849 151.42 184.05 151.049C184.465 150.921 184.88 150.793 185.291 150.65C185.98 150.412 186.693 150.234 187.411 150.111C187.561 150.836 187.549 150.839 186.95 151.018L184.492 151.819C184.292 151.885 184.092 151.952 183.893 152.02C183.048 152.304 182.203 152.589 181.342 152.819ZM177.76 155.37V155.334C177.533 155.334 177.306 155.335 177.077 155.337C176.387 155.34 175.687 155.343 174.978 155.317C174.668 155.299 174.377 155.192 174.085 155.086C174.016 155.068 173.913 154.873 173.93 154.837C173.967 154.79 174.005 154.736 174.043 154.682C174.161 154.512 174.285 154.336 174.428 154.322C175.304 154.233 176.197 154.216 177.09 154.216C177.591 154.216 178.104 154.262 178.61 154.309C178.728 154.319 178.845 154.33 178.962 154.34L178.995 154.342C179.242 154.359 179.494 154.375 179.477 154.766C179.443 155.192 179.288 155.37 178.91 155.37H177.76ZM171.603 159.168C171.467 159.224 171.327 159.282 171.182 159.347C171.135 159.321 171.081 159.293 171.028 159.265C170.867 159.182 170.706 159.099 170.719 159.045C170.753 158.832 170.856 158.53 171.01 158.442C172.195 157.749 173.397 157.092 174.599 156.435C174.891 156.293 175.235 156.204 175.39 156.613C175.527 156.968 175.338 157.163 174.995 157.341C174.448 157.624 173.913 157.931 173.379 158.238C173.008 158.451 172.638 158.664 172.264 158.868C172.058 158.98 171.837 159.071 171.603 159.168ZM176.128 160.023C176.19 160.029 176.253 160.035 176.317 160.04C176.369 160.697 176.231 160.839 175.716 160.892C175.184 160.936 174.656 160.994 174.127 161.052C173.599 161.11 173.071 161.167 172.539 161.212C172.264 161.229 171.972 161.141 171.715 161.052C171.646 161.016 171.594 160.661 171.663 160.608C171.852 160.466 172.092 160.306 172.333 160.288C173.157 160.195 173.981 160.132 174.806 160.069C175.081 160.047 175.355 160.026 175.63 160.004C175.794 159.991 175.958 160.007 176.128 160.023ZM175.985 158.148C175.917 158.15 175.845 158.152 175.768 158.158C175.892 157.658 176.229 157.553 176.534 157.459C177.045 157.3 177.55 157.121 178.056 156.943C178.435 156.809 178.814 156.675 179.195 156.549C179.507 156.447 179.819 156.344 180.13 156.24C180.153 156.234 180.175 156.224 180.198 156.214C180.244 156.195 180.29 156.175 180.336 156.187C180.456 156.222 180.576 156.275 180.679 156.329C180.658 156.367 180.64 156.41 180.623 156.452C180.583 156.549 180.545 156.641 180.473 156.666C180.112 156.826 179.735 156.968 179.357 157.092L176.369 158.104C176.252 158.14 176.128 158.144 175.985 158.148ZM176.409 153.082C176.338 153.103 176.262 153.124 176.18 153.15C176.159 153.138 176.133 153.123 176.106 153.108C176.017 153.058 175.913 153 175.939 152.973C175.956 152.813 176.008 152.618 176.128 152.529C176.42 152.316 176.764 152.138 177.09 151.978L177.307 151.88C177.781 151.665 178.247 151.453 178.739 151.268C178.846 151.231 178.987 151.271 179.126 151.311C179.187 151.329 179.248 151.346 179.305 151.357C179.261 151.423 179.225 151.502 179.191 151.579C179.132 151.708 179.076 151.834 178.979 151.89C178.355 152.22 177.73 152.512 177.095 152.809L176.746 152.973C176.638 153.018 176.53 153.048 176.409 153.082ZM181.366 161.638C181.266 161.626 181.173 161.54 181.078 161.452C181.026 161.404 180.974 161.356 180.92 161.318C180.971 161.283 181.023 161.235 181.074 161.188C181.177 161.093 181.28 160.999 181.383 160.999C182.294 160.981 183.204 160.999 184.114 161.034C184.2 161.034 184.295 161.134 184.386 161.23C184.422 161.268 184.457 161.306 184.492 161.336C184.449 161.369 184.406 161.411 184.362 161.454C184.267 161.547 184.169 161.643 184.062 161.656C183.768 161.694 183.466 161.686 183.16 161.679C182.954 161.674 182.746 161.67 182.538 161.667C182.147 161.659 181.755 161.652 181.366 161.638ZM167.747 158.14C168.228 157.749 170.959 156.719 171.715 156.684C171.669 156.747 171.631 156.805 171.596 156.858C171.515 156.982 171.456 157.072 171.371 157.11C170.481 157.475 169.592 157.82 168.694 158.167L168.692 158.168C168.412 158.277 168.132 158.385 167.851 158.495C167.808 158.506 167.752 158.503 167.676 158.5C167.628 158.498 167.573 158.495 167.507 158.495C167.54 158.444 167.568 158.396 167.593 158.353C167.647 158.261 167.689 158.188 167.747 158.14ZM176.06 163.147V163.129C175.966 163.129 175.871 163.131 175.775 163.134C175.486 163.14 175.193 163.147 174.909 163.094C174.803 163.082 174.713 162.994 174.622 162.905C174.581 162.865 174.54 162.825 174.497 162.792C174.542 162.763 174.585 162.726 174.628 162.689C174.715 162.615 174.8 162.543 174.892 162.543C175.699 162.543 176.489 162.561 177.279 162.597C177.348 162.597 177.416 162.676 177.485 162.754C177.519 162.794 177.554 162.833 177.588 162.863C177.545 162.895 177.504 162.935 177.464 162.975C177.392 163.048 177.322 163.118 177.244 163.129C176.948 163.156 176.652 163.153 176.356 163.149C176.257 163.148 176.158 163.147 176.06 163.147ZM182.828 154.44C182.633 154.519 182.437 154.598 182.242 154.677C182.211 154.646 182.176 154.618 182.143 154.593C182.085 154.548 182.036 154.51 182.036 154.464C182.036 154.34 182.087 154.145 182.173 154.091C182.448 153.932 182.74 153.79 183.049 153.665C183.427 153.523 183.805 153.381 184.183 153.275C184.269 153.239 184.457 153.346 184.509 153.434C184.543 153.505 184.492 153.736 184.423 153.772C183.938 153.992 183.436 154.196 182.929 154.4L182.828 154.44ZM180.197 159.195C180.214 159.23 180.23 159.267 180.25 159.294C180.234 159.322 180.221 159.349 180.209 159.375C180.183 159.433 180.16 159.483 180.112 159.507C179.958 159.673 179.805 159.84 179.653 160.008C179.347 160.344 179.042 160.679 178.721 160.999C178.639 161.084 178.515 161.111 178.395 161.137C178.342 161.148 178.289 161.16 178.241 161.176C178.252 161.117 178.256 161.052 178.26 160.988C178.267 160.859 178.275 160.732 178.344 160.661C178.79 160.146 179.271 159.649 179.769 159.152C179.892 159.025 180.126 159.041 180.197 159.195ZM168.228 161.966C168.207 161.944 168.185 161.922 168.16 161.904C168.169 161.876 168.176 161.844 168.182 161.811C168.201 161.72 168.221 161.624 168.297 161.584C168.709 161.318 169.139 161.07 169.585 160.839C169.654 160.803 169.808 160.839 169.843 160.892C169.877 160.945 169.843 161.123 169.791 161.158C169.293 161.46 168.795 161.744 168.297 162.028C168.271 162.011 168.25 161.988 168.228 161.966ZM188.39 160.214C188.15 160.392 187.978 160.232 187.926 159.859C187.961 159.803 187.992 159.744 188.024 159.686C188.103 159.539 188.182 159.392 188.304 159.291C188.957 158.616 189.644 157.959 190.314 157.32C190.468 157.178 190.64 157.053 190.812 156.929C190.834 156.912 190.856 156.895 190.878 156.878C191.042 156.748 191.199 156.623 191.396 156.858C191.602 157.124 191.584 157.373 191.344 157.586C190.829 158.083 190.296 158.58 189.764 159.06C189.318 159.468 188.871 159.859 188.39 160.214ZM186.574 153.105C186.537 153.054 186.507 153.012 186.467 152.969C186.505 152.945 186.541 152.918 186.578 152.891C186.674 152.819 186.772 152.747 186.896 152.721C188.115 152.206 189.335 151.709 190.571 151.212C190.641 151.188 190.735 151.212 190.825 151.236C190.868 151.248 190.91 151.259 190.949 151.265C190.93 151.299 190.912 151.338 190.894 151.377C190.848 151.478 190.8 151.582 190.726 151.62C189.953 151.975 189.163 152.313 188.373 152.632C188.025 152.769 187.668 152.888 187.309 153.008C187.155 153.06 187 153.111 186.845 153.165C186.804 153.175 186.758 153.167 186.709 153.159C186.675 153.153 186.64 153.147 186.604 153.147L186.574 153.105ZM190.85 154.071C190.477 154.134 190.088 154.2 189.661 154.266C189.636 154.245 189.598 154.22 189.555 154.193C189.45 154.126 189.322 154.045 189.335 153.982C189.352 153.804 189.489 153.502 189.627 153.467C190.206 153.335 190.786 153.252 191.375 153.167L191.379 153.166L191.387 153.165C191.51 153.147 191.633 153.13 191.756 153.112C192.014 153.076 192.168 153.183 192.186 153.467C192.203 153.733 192.082 153.875 191.825 153.911C191.502 153.961 191.182 154.015 190.85 154.071ZM186.617 157.147C186.584 157.15 186.551 157.154 186.518 157.16C186.656 156.68 189.129 155.349 189.901 155.367C189.874 155.408 189.85 155.45 189.826 155.49C189.76 155.603 189.703 155.7 189.627 155.739C188.699 156.201 187.755 156.663 186.81 157.107C186.752 157.131 186.686 157.138 186.617 157.147ZM189.197 135.83C188.304 137.41 188.236 138.866 189.678 140.216C188.252 140.216 186.911 139.649 185.986 138.529C185.917 138.458 185.848 138.245 185.9 138.174C186.638 137.038 187.617 136.239 188.888 135.83C188.966 135.79 189.094 135.812 189.18 135.827L189.197 135.83ZM194.229 137.215C193.268 138.671 192.065 139.737 190.331 140.109C191.584 138.6 191.327 137.162 190.108 135.67C191.739 135.688 193.01 136.292 194.229 137.215ZM182.822 159.081C182.52 159.085 182.201 159.09 182.139 158.654C182.087 158.299 182.431 157.961 182.877 157.961L185.341 158.02C185.797 158.038 186.261 158.056 186.209 158.597C186.171 159.103 185.874 159.093 185.495 159.081C184.887 159.06 184.275 159.067 183.665 159.074C183.384 159.077 183.103 159.08 182.822 159.081Z" fill="#C4C4C4"/>
</svg>
