<svg width="24" height="24" viewBox="0 0 24 24" fill="none" xmlns="http://www.w3.org/2000/svg">
<path d="M18.8939 19.9945C19.1477 20.2483 19.5593 20.2483 19.8131 19.9945C20.067 19.7406 20.067 19.3291 19.8131 19.0752L18.8939 19.9945ZM14.0744 15.1751L18.8939 19.9945L19.8131 19.0752L14.9936 14.2558L14.0744 15.1751ZM10.4576 3.81484C6.88919 3.81484 3.99697 6.70707 3.99697 10.2755H5.29697C5.29697 7.42503 7.60717 5.11484 10.4576 5.11484V3.81484ZM3.99697 10.2755C3.99697 13.8438 6.88919 16.736 10.4576 16.736V15.436C7.60716 15.436 5.29697 13.1258 5.29697 10.2755H3.99697ZM10.4576 16.736C14.0259 16.736 16.9182 13.8438 16.9182 10.2755H15.6182C15.6182 13.1258 13.308 15.436 10.4576 15.436V16.736ZM16.9182 10.2755C16.9182 6.70707 14.0259 3.81484 10.4576 3.81484V5.11484C13.308 5.11484 15.6182 7.42503 15.6182 10.2755H16.9182Z" fill="currentColor"/>
</svg>
